<svg width="11" height="9" viewBox="0 0 11 9" fill="none" xmlns="http://www.w3.org/2000/svg">
<g id="Group 5927">
<path id="Vector" fill-rule="evenodd" clip-rule="evenodd" d="M0.142578 4.50005C0.142578 4.3377 0.209146 4.182 0.327638 4.06721C0.44613 3.95241 0.606839 3.88792 0.774412 3.88792L8.09484 3.88792L5.38175 1.26064C5.323 1.20372 5.2764 1.13616 5.24461 1.0618C5.21282 0.987434 5.19645 0.907734 5.19645 0.827246C5.19645 0.746758 5.21282 0.667057 5.24461 0.592696C5.2764 0.518334 5.323 0.450768 5.38175 0.393855C5.44049 0.336941 5.51023 0.291795 5.58699 0.260993C5.66374 0.230191 5.74601 0.214338 5.82908 0.214338C5.91216 0.214338 5.99443 0.230191 6.07118 0.260993C6.14794 0.291795 6.21768 0.336941 6.27642 0.393855L10.0674 4.06666C10.1263 4.12352 10.173 4.19107 10.2048 4.26544C10.2367 4.33981 10.2531 4.41954 10.2531 4.50005C10.2531 4.58057 10.2367 4.6603 10.2048 4.73466C10.173 4.80903 10.1263 4.87658 10.0674 4.93344L6.27642 8.60625C6.21768 8.66316 6.14794 8.70831 6.07118 8.73911C5.99443 8.76991 5.91216 8.78577 5.82908 8.78577C5.74601 8.78577 5.66374 8.76991 5.58699 8.73911C5.51023 8.70831 5.44049 8.66316 5.38175 8.60625C5.2631 8.49131 5.19645 8.33541 5.19645 8.17286C5.19645 8.09237 5.21282 8.01267 5.24461 7.93831C5.2764 7.86395 5.323 7.79638 5.38175 7.73947L8.09484 5.11219H0.774412C0.606839 5.11219 0.44613 5.04769 0.327638 4.9329C0.209146 4.8181 0.142578 4.6624 0.142578 4.50005Z" fill="#515151"/>
</g>
</svg>
