<svg width="27" height="27" viewBox="0 0 27 27" fill="none" xmlns="http://www.w3.org/2000/svg">
<g id="Arrow Icon">
<path id="Vector" d="M18.0681 2.7608C18.3844 3.07725 18.5621 3.5064 18.5621 3.95386C18.5621 4.40133 18.3844 4.83047 18.0681 5.14692L9.71493 13.5L18.0681 21.8532C18.3754 22.1714 18.5455 22.5977 18.5417 23.0402C18.5378 23.4826 18.3604 23.9059 18.0475 24.2187C17.7346 24.5316 17.3114 24.7091 16.8689 24.7129C16.4265 24.7168 16.0002 24.5467 15.6819 24.2393L6.13574 14.6931C5.81938 14.3767 5.64166 13.9475 5.64166 13.5C5.64166 13.0526 5.81938 12.6234 6.13574 12.307L15.6819 2.7608C15.9984 2.44444 16.4275 2.26672 16.875 2.26672C17.3225 2.26672 17.7516 2.44444 18.0681 2.7608Z" fill="#44B598"/>
</g>
</svg>
