<svg width="231" height="170" viewBox="0 0 231 170" fill="none" xmlns="http://www.w3.org/2000/svg">
<g id="Group 6569">
<g id="Group 6568">
<path id="Vector" d="M26.5495 37.4007C26.5495 37.4007 28.773 35.5712 26.2118 30.6739L25.2267 28.8163C25.2267 28.8163 24.8889 27.9438 26.3244 28.0564C27.7598 28.169 30.1521 26.4239 31.2498 22.371C31.3343 22.0895 31.4187 21.7236 32.3194 22.7087C33.8111 24.3693 37.864 25.27 44.3093 23.2435L45.7448 25.9455C45.7448 25.9455 53.6255 26.1706 55.652 15.7849C55.652 15.7849 56.806 5.34293 44.5908 8.0449C44.5908 8.0449 46.1388 1.23368 40.0875 0.0797098C40.0875 0.0797098 32.6008 -1.07426 27.1406 5.39922C27.1406 5.39922 26.5214 6.27173 25.8459 4.92074C25.8459 4.92074 23.7631 0.698912 19.5694 4.5267C17.0645 6.80649 14.9254 10.1558 14.5877 17.0796C14.5595 17.8677 14.5877 20.2601 14.5877 20.2601C14.5877 20.2601 11.9138 20.2319 11.4072 22.3428C10.5629 25.9455 13.293 32.5878 17.74 35.7682L18.8376 36.3875C18.8376 36.3875 17.8525 33.8825 20.6671 33.601C20.6671 33.601 23.0313 33.1507 24.7764 36.106C24.8326 36.0497 25.7896 37.9355 26.5495 37.4007Z" fill="#2A3E7E"/>
<path id="Vector_2" d="M41.0448 30.2518C41.0448 30.2518 41.8329 32.9819 42.0862 33.9108C42.2832 34.6707 43.0713 36.6127 40.6789 36.8379" stroke="#002266" stroke-width="1.12831" stroke-miterlimit="10" stroke-linecap="round" stroke-linejoin="round"/>
<g id="Group">
<g id="Group_2">
<path id="Vector_3" d="M43.9441 30.674L44.0285 30.6458C44.2818 30.5895 44.4788 30.3362 44.4507 30.0829L44.1974 28.563C44.1411 28.3097 43.8878 28.1127 43.6345 28.1409L43.55 28.169C43.2967 28.2253 43.0997 28.4786 43.1279 28.7319L43.3812 30.2518C43.4375 30.5332 43.6908 30.7303 43.9441 30.674Z" fill="#002266"/>
<path id="Vector_4" d="M34.2339 31.9403L34.3183 31.9122C34.5716 31.8559 34.7686 31.6026 34.7405 31.3493L34.4872 29.8294C34.4309 29.5761 34.1776 29.3791 33.9243 29.4072L33.8398 29.4354C33.5865 29.4917 33.3895 29.745 33.4177 29.9983L33.671 31.5181C33.7272 31.7996 33.9806 31.9685 34.2339 31.9403Z" fill="#002266"/>
</g>
</g>
<path id="Vector_5" d="M43.9724 22.7087C43.9724 22.7087 52.8945 35.8246 44.7042 45.4785C44.7042 45.4785 40.3979 50.6854 33.0801 46.5199" stroke="#002266" stroke-width="1.12831" stroke-miterlimit="10" stroke-linecap="round" stroke-linejoin="round"/>
<path id="Vector_6" d="M25.7901 37.9356C25.7901 37.9356 24.2702 33.4604 20.7239 33.573C20.7239 33.573 17.4027 33.6856 19.2885 37.2319C19.2885 37.2319 20.9491 39.7932 23.3977 41.7634C24.6643 42.8047 26.8878 44.6342 24.7206 48.1524C23.1163 50.7699 16.1925 56.9057 16.1925 56.9057C16.1925 56.9057 2.59819 71.4569 1.05019 88.9634C1.05019 88.9634 -0.807428 114.463 18.0501 110.72C18.0501 110.72 39.3281 106.639 40.6791 95.268C40.6791 95.268 40.8198 85.7267 30.4904 88.2316C30.4904 88.2316 23.3133 90.8773 20.8365 91.5528C20.3862 91.6654 19.964 91.7217 19.767 90.0611C19.2885 86.2052 18.7819 83.3906 18.7819 83.3906" stroke="#002266" stroke-width="1.12831" stroke-miterlimit="10" stroke-linecap="round" stroke-linejoin="round"/>
<path id="Vector_7" d="M41.5229 48.1523L42.0295 51.3046" stroke="#002266" stroke-width="1.12831" stroke-miterlimit="10" stroke-linecap="round" stroke-linejoin="round"/>
<path id="Vector_8" d="M60.4092 67.432C55.1178 55.3576 45.3232 52.4304 45.3232 52.4304C45.3232 52.4304 44.4507 56.2019 38.906 56.0612C33.3613 55.9205 26.7753 52.4304 26.7753 52.4304" stroke="#002266" stroke-width="1.12831" stroke-miterlimit="10" stroke-linecap="round" stroke-linejoin="round"/>
<path id="Vector_9" d="M13.9689 117.672L14.194 128.311C14.194 128.311 13.8563 133.996 20.2172 135.122C26.5781 136.22 37.7518 132.617 46.5332 132.87C51.1491 133.011 64.9404 134.531 64.9404 134.531C64.9404 134.531 67.4454 135.516 67.0232 128.114C67.0232 128.114 67.6424 105.794 64.5464 84.8259" stroke="#002266" stroke-width="1.12831" stroke-miterlimit="10" stroke-linecap="round" stroke-linejoin="round"/>
<path id="Vector_10" d="M13.9971 59.4669C13.9971 59.4669 23.7918 70.2748 22.4971 91.0462" stroke="#002266" stroke-width="1.12831" stroke-miterlimit="10" stroke-linecap="round" stroke-linejoin="round"/>
<path id="Vector_11" d="M34.9092 86.0644C32.9672 86.0081 42.0301 82.8558 42.0301 82.8558C42.0301 82.8558 42.79 82.3492 44.7883 83.9816C46.477 85.3889 48.2502 89.1041 47.7718 92.2283C47.6873 92.7067 45.8297 93.8889 43.0714 94.9865C43.0714 94.9865 42.5367 94.9865 42.2834 92.96C41.6642 88.1753 38.5119 86.1488 34.9092 86.0644Z" fill="#002266"/>
<rect id="Rectangle 1274" width="9.94023" height="19.8159" rx="3.00884" transform="matrix(-0.996588 -0.0825315 -0.0823476 0.996604 62.9783 64.6042)" fill="#99F300"/>
<path id="Vector_12" d="M44.7036 82.0677C44.7036 82.0677 47.49 81.6737 48.5033 78.437C49.5165 75.2002 49.3477 72.836 49.3477 69.5711C49.3477 66.3062 51.4304 66.25 52.2185 67.7135C53.0066 69.1771 53.1754 75.538 53.1754 75.538C53.1754 75.538 59.0579 74.9469 59.0579 72.245C59.0579 72.245 58.2698 71.3443 55.5678 72.639" stroke="#002266" stroke-width="1.12831" stroke-miterlimit="10" stroke-linecap="round" stroke-linejoin="round"/>
<path id="Vector_13" d="M61.8725 72.3293C61.8725 72.3293 64.0397 72.3293 62.3228 74.5528C60.7748 76.5512 55.6242 78.3243 55.6242 78.3243" stroke="#002266" stroke-width="1.12831" stroke-miterlimit="10" stroke-linecap="round" stroke-linejoin="round"/>
<path id="Vector_14" d="M63.6458 76.1008C63.6458 76.1008 61.1127 79.028 57.1723 80.3508" stroke="#002266" stroke-width="1.12831" stroke-miterlimit="10" stroke-linecap="round" stroke-linejoin="round"/>
<path id="Vector_15" d="M62.8296 80.8573C62.8296 80.8573 60.9157 82.546 57.9604 83.7" stroke="#002266" stroke-width="1.12831" stroke-miterlimit="10" stroke-linecap="round" stroke-linejoin="round"/>
<path id="Vector_16" d="M61.3374 84.8541C61.3374 84.8541 59.8738 87.4717 56.5527 87.5561C53.2315 87.6405 52.9219 87.4717 51.2332 88.1753" stroke="#002266" stroke-width="1.12831" stroke-miterlimit="10" stroke-linecap="round" stroke-linejoin="round"/>
<path id="Vector_17" d="M68.6446 86.0935C68.6446 86.0935 70.3649 89.0173 74.1562 90.8333C75.8096 91.6324 76.8284 92.4678 77.4297 93.1215" stroke="#002266" stroke-width="1.12831" stroke-miterlimit="10" stroke-linecap="round" stroke-linejoin="round"/>
<path id="Vector_18" d="M80.9959 107.382C77.0837 107.804 75.1135 104.82 75.1135 104.82C72.3553 101.133 75.3668 96.0389 77.1963 94.7442C79.0258 93.4495 80.9959 94.2375 80.9959 94.2375L85.7525 98.2061C85.7525 98.2061 86.1747 98.5157 85.7525 99.1067C85.3304 99.6696 80.8552 100.711 81.0804 105.862C81.0804 106.171 81.3337 106.79 81.3056 107.128C81.3056 107.241 81.2211 107.353 80.9959 107.382Z" fill="#002266"/>
<path id="Vector_19" d="M88 99.5C88 99.5 86.5123 98.0373 84.2888 99.0506" stroke="#002266" stroke-width="1.12831" stroke-miterlimit="10" stroke-linecap="round" stroke-linejoin="round"/>
<path id="Vector_20" d="M48.3628 96.5345C48.6443 106.442 48.194 118.46 46.5334 132.87" stroke="#002266" stroke-width="1.12831" stroke-miterlimit="10" stroke-linecap="round" stroke-linejoin="round"/>
<path id="Vector_21" d="M40.4539 56.0612C40.4539 56.0612 43.6344 60.9303 45.9705 72.9485" stroke="#002266" stroke-width="1.12831" stroke-miterlimit="10" stroke-linecap="round" stroke-linejoin="round"/>
<path id="Vector_22" d="M20.2174 135.122C20.2174 135.122 18.5849 143.847 18.7538 156.062V168.446H66.1509L64.9406 134.559" stroke="#002266" stroke-width="1.12831" stroke-miterlimit="10" stroke-linecap="round" stroke-linejoin="round"/>
<path id="Vector_23" d="M47.8279 142.778C47.8279 142.778 47.856 157.329 45.6325 168.446" stroke="#002266" stroke-width="1.12831" stroke-miterlimit="10" stroke-linecap="round" stroke-linejoin="round"/>
<path id="Vector_24" d="M38.7483 41.7186C38.7483 41.7186 37.1716 40.5088 33.4909 41.7797" stroke="#002266" stroke-width="1.12831" stroke-miterlimit="10" stroke-linecap="round" stroke-linejoin="round"/>
</g>
<g id="Group 5932">
<g id="Rectangle 1062" filter="url(#filter0_i_77_1981)">
<path d="M103.075 65.904C103.075 57.1281 110.19 50.0138 118.966 50.0138H214.307C223.083 50.0138 230.197 57.1281 230.197 65.904V94.374H103.075V65.904Z" fill="#00F2F2"/>
</g>
<g id="Rectangle 720" filter="url(#filter1_i_77_1981)">
<path d="M100.201 61.8902C100.201 53.48 107.019 46.6621 115.429 46.6621H210.77C219.18 46.6621 225.998 53.48 225.998 61.8902V89.6982H100.201V61.8902Z" stroke="#2A3E7E" stroke-width="1.32419" stroke-linejoin="round"/>
</g>
<g id="Group 5929">
<path id="Rectangle 619" d="M81.6621 105.588L143.899 105.588L143.899 167.756H81.6621L81.6621 105.588Z" stroke="#2A3E7E" stroke-width="1.32419" stroke-linejoin="round"/>
<path id="Rectangle 622" d="M99.5386 90.3602L81.6621 104.926" stroke="#2A3E7E" stroke-width="1.32419" stroke-linecap="round"/>
</g>
<g id="Group 5930">
<path id="Rectangle 619_2" d="M144.561 104.926C144.195 104.926 143.899 105.223 143.899 105.588C143.899 105.954 144.195 106.25 144.561 106.25V104.926ZM144.561 106.25H207.46V104.926H144.561V106.25ZM207.46 106.25V167.094H208.784V106.25H207.46ZM207.46 167.094H144.561V168.418H207.46V167.094ZM207.46 167.094V168.418C208.191 168.418 208.784 167.825 208.784 167.094H207.46ZM207.46 106.25L207.46 106.25H208.784C208.784 105.519 208.191 104.926 207.46 104.926V106.25Z" fill="#2A3E7E"/>
<path id="Rectangle 620" d="M208.122 105.588L217.391 96.9813L225.589 90.5399C226.024 90.1985 226.66 90.508 226.66 91.0605V153.355L207.791 167.163" stroke="#2A3E7E" stroke-width="1.32419" stroke-linecap="round"/>
<path id="Rectangle 622_2" d="M163.1 89.6982L144.23 105.588" stroke="#2A3E7E" stroke-width="1.32419" stroke-linecap="round"/>
</g>
<circle id="Ellipse 496" cx="127.804" cy="145.242" r="7.38626" fill="#98F200"/>
<g id="Group_3">
<path id="Vector_25" d="M119.7 138.002H119.32V135.772C119.953 131.48 122.989 130.975 122.989 130.975V130.175H122.693V128.281H123.368H124.043H125.35V130.175H125.055V130.975C125.055 130.975 128.09 131.48 128.723 135.814V138.044H128.343V138.255V138.507H128.681V140.359H128.386V140.569V140.78H128.681V147.808H128.386V148.018V148.229H128.681V150.038H128.386V150.291V150.501H128.681V152.437H128.428V152.647V152.858H128.681V154.793H128.428V155.004V155.172H128.681V158.455C128.681 158.455 128.175 160.096 126.91 160.012C126.91 160.012 125.982 159.801 125.603 159.254H125.35C125.35 159.254 124.886 160.012 124.169 160.012H123.832C123.115 160.012 122.651 159.254 122.651 159.254H122.398C122.019 159.801 121.091 160.012 121.091 160.012C119.826 160.096 119.32 158.455 119.32 158.455V155.172H119.573V155.004V154.793H119.32V152.858H119.573V152.647V152.437H119.32V150.501H119.616V150.291V150.038H119.32V148.229H119.616V148.018V147.808H119.32V140.78H119.616V140.569V140.359H119.32V138.549H119.7V138.255V138.002Z" fill="#00F2F2"/>
<path id="Vector_26" d="M121.558 130.123V128.281H122.214H122.87H124.141V130.123H123.854H121.845H121.558Z" stroke="#002266" stroke-width="0.491118" stroke-miterlimit="10" stroke-linecap="round" stroke-linejoin="round"/>
<path id="Vector_27" d="M118.647 140.507H118.606V140.255H118.319V138.455H118.647V138.204H127.053V138.455H127.381V140.255H127.094V140.507H127.053" stroke="#002266" stroke-width="0.491118" stroke-miterlimit="10" stroke-linecap="round" stroke-linejoin="round"/>
<path id="Vector_28" d="M123.157 154.909H127.053H127.176V155.076H127.381V158.342C127.381 158.342 126.889 159.975 125.659 159.891C125.659 159.891 124.756 159.682 124.387 159.138H124.182C124.182 159.138 123.731 159.891 123.034 159.891H122.706C122.009 159.891 121.558 159.138 121.558 159.138H121.312C120.943 159.682 120.041 159.891 120.041 159.891C118.811 159.975 118.319 158.342 118.319 158.342V155.076H118.565V154.909H118.688H121.599" stroke="#002266" stroke-width="0.491118" stroke-miterlimit="10" stroke-linecap="round" stroke-linejoin="round"/>
<path id="Vector_29" d="M127.381 135.734V137.953H127.053V138.204H118.647V137.953H118.278V135.734C118.893 131.463 121.845 130.919 121.845 130.919V130.123H123.854V130.919C123.854 130.919 126.151 131.338 127.135 134.394" stroke="#002266" stroke-width="0.491118" stroke-miterlimit="10" stroke-linecap="round" stroke-linejoin="round"/>
<path id="Vector_30" d="M121.968 150.178H118.647H118.565V149.927H118.319V148.127H118.606V147.917H118.647" stroke="#002266" stroke-width="0.491118" stroke-miterlimit="10" stroke-linecap="round" stroke-linejoin="round"/>
<path id="Vector_31" d="M127.053 147.917H127.094V148.127H127.381V149.927H127.135V150.178H127.053H123.567" stroke="#002266" stroke-width="0.491118" stroke-miterlimit="10" stroke-linecap="round" stroke-linejoin="round"/>
<path id="Vector_32" d="M123.116 147.917H118.647H118.606V147.666H118.319V140.674H118.606V140.507H118.647H123.608" stroke="#002266" stroke-width="0.491118" stroke-miterlimit="10" stroke-linecap="round" stroke-linejoin="round"/>
<path id="Vector_33" d="M126.028 140.507H127.053H127.094V140.674H127.381V147.666H127.094V147.917H127.053H125.412" stroke="#002266" stroke-width="0.491118" stroke-miterlimit="10" stroke-linecap="round" stroke-linejoin="round"/>
<path id="Vector_34" d="M121.968 152.564H118.647H118.524V152.355H118.319V150.387H118.565V150.178H118.647" stroke="#002266" stroke-width="0.491118" stroke-miterlimit="10" stroke-linecap="round" stroke-linejoin="round"/>
<path id="Vector_35" d="M127.053 150.178H127.135V150.387H127.381V152.355H127.176V152.564H127.053H124.592" stroke="#002266" stroke-width="0.491118" stroke-miterlimit="10" stroke-linecap="round" stroke-linejoin="round"/>
<path id="Vector_36" d="M118.647 154.909H118.524V154.7H118.319V152.774H118.524V152.564H118.647" stroke="#002266" stroke-width="0.491118" stroke-miterlimit="10" stroke-linecap="round" stroke-linejoin="round"/>
</g>
<path id="Vector_37" d="M184.079 125.271C184.617 128.905 185.155 129.576 188.367 130.493C185.09 131.131 184.487 131.737 183.623 135.305C183.085 131.671 182.547 131 179.336 130.084C182.612 129.445 183.216 128.839 184.079 125.271Z" fill="#002266"/>
<g id="Group_4">
<g id="Group_5">
<path id="Vector_38" d="M198.556 151.494C198.556 152.287 199.185 152.914 199.98 152.914C200.774 152.914 201.404 152.287 201.404 151.494C201.404 150.701 199.98 147.662 199.98 147.662C199.98 147.662 198.556 150.734 198.556 151.494Z" fill="#4761A3"/>
<path id="Vector_39" d="M192.875 135.187H199.795C200.259 135.187 200.623 135.55 200.623 136.012V137.499H192.048V136.012C192.048 135.55 192.412 135.187 192.875 135.187Z" fill="#4761A3"/>
</g>
<g id="Group_6">
<path id="Vector_40" d="M204.188 159.051H188.328" stroke="#002266" stroke-width="0.802743" stroke-miterlimit="10" stroke-linecap="round" stroke-linejoin="round"/>
<path id="Vector_41" d="M188.329 142.37V159.051" stroke="#002266" stroke-width="0.802743" stroke-miterlimit="10" stroke-linecap="round" stroke-linejoin="round"/>
<path id="Vector_42" d="M204.188 142.37V153.337" stroke="#002266" stroke-width="0.802743" stroke-miterlimit="10" stroke-linecap="round" stroke-linejoin="round"/>
<path id="Vector_43" d="M204.188 154.955V159.051" stroke="#002266" stroke-width="0.802743" stroke-miterlimit="10" stroke-linecap="round" stroke-linejoin="round"/>
<path id="Vector_44" d="M195.613 159.051V142.37" stroke="#002266" stroke-width="0.802743" stroke-miterlimit="10" stroke-linecap="round" stroke-linejoin="round"/>
<path id="Vector_45" d="M204.188 142.37H191.639" stroke="#002266" stroke-width="0.802743" stroke-miterlimit="10" stroke-linecap="round" stroke-linejoin="round"/>
<path id="Vector_46" d="M189.818 142.37H188.328" stroke="#002266" stroke-width="0.802743" stroke-miterlimit="10" stroke-linecap="round" stroke-linejoin="round"/>
<path id="Vector_47" d="M204.188 142.37L200.645 137.514" stroke="#002266" stroke-width="0.802743" stroke-miterlimit="10" stroke-linecap="round" stroke-linejoin="round"/>
<path id="Vector_48" d="M200.646 137.514H192.07" stroke="#002266" stroke-width="0.802743" stroke-miterlimit="10" stroke-linecap="round" stroke-linejoin="round"/>
<path id="Vector_49" d="M195.613 142.37L192.07 137.514" stroke="#002266" stroke-width="0.802743" stroke-miterlimit="10" stroke-linecap="round" stroke-linejoin="round"/>
<path id="Vector_50" d="M188.329 142.37L192.07 137.514" stroke="#002266" stroke-width="0.802743" stroke-miterlimit="10" stroke-linecap="round" stroke-linejoin="round"/>
<path id="Vector_51" d="M193.03 138.836L188.329 142.37" stroke="#002266" stroke-width="0.802743" stroke-miterlimit="10" stroke-linecap="round" stroke-linejoin="round"/>
<path id="Vector_52" d="M192.898 135.202H199.818C200.281 135.202 200.646 135.565 200.646 136.028V137.514H192.07V136.028C192.07 135.565 192.434 135.202 192.898 135.202Z" stroke="#002266" stroke-width="0.802743" stroke-miterlimit="10" stroke-linecap="round" stroke-linejoin="round"/>
<path id="Vector_53" d="M198.493 151.586C198.493 152.379 199.122 153.006 199.917 153.006C200.712 153.006 201.341 152.379 201.341 151.586C201.341 150.793 199.917 147.754 199.917 147.754C199.917 147.754 198.493 150.793 198.493 151.586Z" stroke="#002266" stroke-width="0.802743" stroke-miterlimit="10" stroke-linecap="round" stroke-linejoin="round"/>
<path id="Vector_54" d="M197.594 140.822C196.703 140.153 196.283 139.209 196.657 138.713C197.03 138.218 198.056 138.358 198.948 139.027C199.839 139.696 200.259 140.64 199.885 141.136C199.511 141.632 198.486 141.491 197.594 140.822Z" stroke="#002266" stroke-width="0.802743" stroke-miterlimit="10" stroke-linecap="round" stroke-linejoin="round"/>
</g>
</g>
</g>
</g>
<defs>
<filter id="filter0_i_77_1981" x="103.075" y="44.8217" width="132.314" height="49.5523" filterUnits="userSpaceOnUse" color-interpolation-filters="sRGB">
<feFlood flood-opacity="0" result="BackgroundImageFix"/>
<feBlend mode="normal" in="SourceGraphic" in2="BackgroundImageFix" result="shape"/>
<feColorMatrix in="SourceAlpha" type="matrix" values="0 0 0 0 0 0 0 0 0 0 0 0 0 0 0 0 0 0 127 0" result="hardAlpha"/>
<feOffset dx="5.1921" dy="-5.1921"/>
<feGaussianBlur stdDeviation="4.32675"/>
<feComposite in2="hardAlpha" operator="arithmetic" k2="-1" k3="1"/>
<feColorMatrix type="matrix" values="0 0 0 0 0.679167 0 0 0 0 0.679167 0 0 0 0 0.679167 0 0 0 0.1 0"/>
<feBlend mode="normal" in2="shape" result="effect1_innerShadow_77_1981"/>
</filter>
<filter id="filter1_i_77_1981" x="99.5386" y="40.8079" width="132.314" height="49.5523" filterUnits="userSpaceOnUse" color-interpolation-filters="sRGB">
<feFlood flood-opacity="0" result="BackgroundImageFix"/>
<feBlend mode="normal" in="SourceGraphic" in2="BackgroundImageFix" result="shape"/>
<feColorMatrix in="SourceAlpha" type="matrix" values="0 0 0 0 0 0 0 0 0 0 0 0 0 0 0 0 0 0 127 0" result="hardAlpha"/>
<feOffset dx="5.1921" dy="-5.1921"/>
<feGaussianBlur stdDeviation="4.32675"/>
<feComposite in2="hardAlpha" operator="arithmetic" k2="-1" k3="1"/>
<feColorMatrix type="matrix" values="0 0 0 0 0.679167 0 0 0 0 0.679167 0 0 0 0 0.679167 0 0 0 0.1 0"/>
<feBlend mode="normal" in2="shape" result="effect1_innerShadow_77_1981"/>
</filter>
</defs>
</svg>
