<svg width="375" height="485" viewBox="0 0 375 485" fill="none" xmlns="http://www.w3.org/2000/svg">
<rect y="-31" width="375" height="516" fill="url(#paint0_linear_121_549)"/>
<path d="M296.193 9.34424C291.216 9.34424 287.181 13.3829 287.181 18.3652C287.188 18.5927 287.204 18.8167 287.229 19.0371C286.819 18.9552 286.39 18.8895 285.941 18.8431C280.964 18.8431 276.928 22.8818 276.928 27.8641C276.928 32.8463 280.963 36.8852 285.941 36.8852H314.059C319.037 36.8852 323.072 32.8463 323.072 27.8641C323.072 22.8818 319.037 18.8431 314.059 18.8431C313.066 18.8734 312.141 19.0809 311.294 19.4287C310.032 17.8291 308.078 16.8025 305.884 16.8025C305.604 16.8108 305.337 16.8268 305.078 16.8491C304.358 12.5891 300.654 9.34448 296.193 9.34448L296.193 9.34424Z" fill="white"/>
<circle cx="348" cy="39" r="46" fill="#F5EE30"/>
<path fill-rule="evenodd" clip-rule="evenodd" d="M86.4235 191.709C86.4057 191.724 86.4051 191.657 86.3898 191.639C86.3772 191.625 86.361 191.62 86.3437 191.611C86.329 191.604 86.3157 191.596 86.2985 191.595C86.2794 191.596 86.2608 191.607 86.2421 191.609C86.2267 191.609 86.2083 191.603 86.1929 191.602C86.1735 191.601 86.153 191.603 86.1354 191.601C86.121 191.597 86.1045 191.591 86.0923 191.587C86.0758 191.581 86.06 191.579 86.0453 191.572C85.8869 191.501 85.7264 191.437 85.5683 191.358C84.4423 190.783 83.4451 190.04 82.5316 189.069C78.3971 184.682 81.2297 186.31 81.3137 181.517C81.3259 180.723 81.8022 179.883 82.5534 180.057C83.4138 180.26 84.345 181.985 84.7703 182.843C85.8655 185.075 86.7254 187.631 87.3177 190.124C87.3557 190.286 87.3995 190.439 87.4257 190.599C87.4323 190.63 87.4242 190.665 87.415 190.693C87.4061 190.724 87.3969 190.753 87.3832 190.778C87.3662 190.797 87.3451 190.815 87.3236 190.831C87.3018 190.845 87.2799 190.859 87.2573 190.87C87.2292 190.882 87.2032 190.885 87.1769 190.896C87.1521 190.905 87.1276 190.916 87.1032 190.927C87.0787 190.938 87.0517 190.946 87.0302 190.962C87.0084 190.976 86.9917 190.997 86.9729 191.016C86.9467 191.037 86.9187 191.058 86.8951 191.082C86.866 191.107 86.8418 191.137 86.8168 191.163C86.7891 191.186 86.7589 191.206 86.7353 191.23C86.7099 191.255 86.6861 191.286 86.6618 191.316C86.6368 191.343 86.6106 191.363 86.5878 191.391C86.5635 191.421 86.5411 191.451 86.5195 191.484C86.4993 191.515 86.4791 191.546 86.4633 191.58C86.4464 191.618 86.4548 191.685 86.4235 191.709Z" fill="white"/>
<path fill-rule="evenodd" clip-rule="evenodd" d="M85.9138 193.006C85.9099 193.024 85.8755 192.987 85.8593 192.983C85.8435 192.98 85.8315 192.987 85.8187 192.989C85.8081 192.994 85.7953 192.996 85.7858 193.006C85.776 193.014 85.7718 193.03 85.7605 193.04C85.7511 193.05 85.7383 193.052 85.727 193.062C85.7172 193.07 85.706 193.08 85.6965 193.09C85.6845 193.096 85.6735 193.098 85.6633 193.104C85.6509 193.109 85.6407 193.115 85.6279 193.118C85.5052 193.161 85.3798 193.2 85.2519 193.237C83.6585 193.689 80.8063 193.762 79.3868 192.747C78.4523 192.074 78.7419 191.047 78.1864 190.197C75.3995 185.94 83.2709 190.193 84.4272 190.893C84.829 191.141 85.2327 191.388 85.6219 191.657C85.7223 191.726 85.825 191.796 85.9214 191.873C85.9414 191.886 85.9523 191.911 85.9624 191.931C85.9743 191.952 85.9826 191.973 85.9836 191.996C85.9878 192.016 85.9844 192.036 85.9805 192.054C85.9748 192.072 85.9695 192.092 85.9602 192.111C85.9523 192.128 85.9389 192.146 85.9278 192.166C85.9199 192.183 85.9142 192.201 85.9049 192.221C85.8952 192.238 85.8855 192.255 85.8783 192.276C85.8745 192.294 85.8769 192.314 85.8757 192.336C85.8715 192.361 85.8656 192.387 85.8633 192.413C85.8599 192.442 85.862 192.47 85.8601 192.497C85.8564 192.525 85.8482 192.55 85.8481 192.576C85.8462 192.604 85.8509 192.635 85.8508 192.662C85.8493 192.691 85.8448 192.715 85.8469 192.743C85.8454 192.772 85.8493 192.8 85.854 192.831C85.8576 192.857 85.8616 192.885 85.871 192.912C85.8798 192.944 85.9168 192.975 85.9138 193.006Z" fill="white"/>
<path fill-rule="evenodd" clip-rule="evenodd" d="M87.6304 192.583C87.6215 192.604 87.6825 192.586 87.7072 192.594C87.7259 192.601 87.7349 192.617 87.7467 192.628C87.7571 192.641 87.7708 192.651 87.7761 192.667C87.7818 192.685 87.7765 192.705 87.7822 192.723C87.7861 192.742 87.7961 192.753 87.8054 192.77C87.8133 192.789 87.815 192.806 87.8225 192.824C87.8292 192.838 87.8411 192.848 87.8496 192.862C87.86 192.875 87.8686 192.889 87.8772 192.902C87.9944 193.032 88.1057 193.161 88.2295 193.286C89.1278 194.176 90.1478 194.891 91.3554 195.455C96.8134 198.01 94.3839 195.829 98.9117 194.253C99.6624 193.99 100.311 193.28 99.9102 192.619C99.4511 191.864 97.5191 191.517 96.5704 191.384C94.1079 191.04 91.4105 191.022 88.8541 191.238C88.693 191.253 88.5321 191.26 88.3714 191.287C88.3396 191.29 88.3112 191.309 88.2842 191.326C88.2573 191.343 88.2344 191.361 88.2177 191.382C88.2015 191.405 88.1915 191.43 88.1833 191.454C88.1751 191.479 88.1714 191.507 88.1668 191.53C88.1653 191.559 88.1707 191.585 88.1673 191.614C88.165 191.64 88.1631 191.667 88.1594 191.694C88.1571 191.72 88.1574 191.748 88.151 191.773C88.1451 191.799 88.1288 191.821 88.1184 191.844C88.1026 191.878 88.0938 191.909 88.0795 191.94C88.0618 191.975 88.0439 192.007 88.0266 192.043C88.0123 192.075 88.0038 192.107 87.9873 192.138C87.9711 192.17 87.9472 192.201 87.9296 192.236C87.9109 192.264 87.9006 192.297 87.8804 192.328C87.862 192.359 87.8381 192.391 87.8143 192.422C87.7915 192.45 87.7694 192.481 87.74 192.505C87.7076 192.533 87.6451 192.544 87.6304 192.583Z" fill="white"/>
<path fill-rule="evenodd" clip-rule="evenodd" d="M86.5606 193.471C86.5435 193.48 86.5877 193.5 86.5974 193.519C86.6052 193.529 86.6028 193.544 86.6037 193.557C86.6038 193.567 86.605 193.582 86.5978 193.593C86.595 193.607 86.5797 193.616 86.5747 193.629C86.5675 193.64 86.5688 193.655 86.5652 193.665C86.5588 193.68 86.5519 193.693 86.5473 193.707C86.5438 193.717 86.5464 193.73 86.5447 193.74C86.5419 193.754 86.5406 193.766 86.5415 193.779C86.5425 193.91 86.5394 194.041 86.5463 194.173C86.6141 195.827 87.437 198.561 88.8441 199.59C89.7717 200.266 90.6608 199.671 91.6424 199.932C96.558 201.248 90.0549 195.103 89.0292 194.225C88.6722 193.918 88.3079 193.613 87.931 193.329C87.8331 193.254 87.7366 193.177 87.6347 193.111C87.6126 193.096 87.5891 193.094 87.5652 193.089C87.5417 193.087 87.5182 193.084 87.4981 193.088C87.4776 193.09 87.4586 193.1 87.4437 193.111C87.4248 193.121 87.4088 193.136 87.3939 193.146C87.3779 193.161 87.3682 193.179 87.3522 193.193C87.3384 193.21 87.3221 193.223 87.3075 193.235C87.2916 193.25 87.2811 193.264 87.261 193.278C87.2476 193.286 87.2256 193.291 87.2089 193.302C87.1859 193.311 87.1618 193.323 87.1359 193.336C87.1115 193.347 87.0844 193.355 87.0581 193.366C87.0333 193.375 87.0114 193.389 86.9892 193.402C86.9607 193.412 86.9314 193.418 86.9048 193.427C86.8796 193.434 86.8573 193.447 86.8303 193.454C86.8014 193.462 86.774 193.468 86.7443 193.472C86.7169 193.478 86.6894 193.484 86.6605 193.482C86.6268 193.486 86.5869 193.46 86.5606 193.471Z" fill="white"/>
<path fill-rule="evenodd" clip-rule="evenodd" d="M88.9338 190.639C88.7513 191.251 88.3463 192.039 87.7757 192.83C86.7098 194.298 85.4736 195.222 85.0115 194.888C84.5516 194.555 85.0416 193.091 86.1053 191.621C86.6778 190.83 87.2996 190.201 87.8226 189.836C87.7392 189.531 87.7932 189.189 87.9908 188.912C88.3461 188.423 89.0266 188.316 89.5134 188.668C90.0025 189.021 90.1137 189.703 89.758 190.19C89.5581 190.466 89.2511 190.622 88.9338 190.639Z" fill="#6A4D31"/>
<path d="M124.597 223.362C133.018 219.579 143.004 220.652 151.268 224.754C159.53 228.857 166.232 235.718 171.689 243.289C177.993 252.032 182.73 261.595 185.903 271.979C190.254 286.227 191.276 301.982 186.152 315.976C181.031 329.973 169.05 341.773 154.647 343.951C141.901 345.88 129.277 340.405 117.843 334.334C111.399 330.917 104.991 327.211 99.7655 322.045C88.9894 311.39 82.876 293.41 84.173 278.09C85.2672 265.17 97.9496 253.221 104.883 243.123C110.177 235.428 115.924 227.262 124.597 223.362Z" fill="#3DA389"/>
<path d="M160.556 258.154C163.48 256.029 166.758 254.441 170.398 253.392C181.589 250.622 192.774 257.435 201.864 263.83L232.847 285.624C244.107 293.545 254.513 302.711 265.034 311.489C273.015 318.254 281.431 324.585 290.29 330.486C301.557 337.867 314.162 345.048 322.237 355.381C333.485 369.773 280.329 365.519 270.434 363.751C264.831 362.749 259.289 361.491 253.822 360.025C252.216 359.596 250.62 359.143 249.034 358.67L179.17 337.811C166.582 334.054 153.985 330.299 141.213 327.037C134.962 325.445 128.679 323.953 122.335 322.658C118.001 321.769 108.577 321.703 105.225 319.087C98.8366 314.112 107.795 306.227 111.874 302.654C119.846 295.676 127.299 288.489 134.625 280.998C142.597 272.855 150.727 264.713 160.556 258.154Z" fill="#57BCA2"/>
<path d="M-110.94 347.187C-112.792 344.925 -114.096 342.371 -114.844 339.523C-117.014 331.179 -107.64 325.978 -102.095 322.004C-97.6824 318.845 -93.1196 315.914 -88.5802 312.95C-79.7256 307.171 -70.8587 301.208 -63.5572 293.413C-47.2433 276.006 -31.4337 258.131 -15.7533 240.128C1.78115 219.997 10.451 240.106 26.7192 258.474C27.7183 259.598 28.6607 260.773 29.5413 261.996C32.4294 266.159 34.8733 270.576 36.8703 275.25C38.8699 279.924 40.3798 284.758 41.4054 289.75C42.5897 294.087 42.8207 298.476 42.0958 302.922C41.1477 307.343 38.6099 311.226 35.9851 314.88C32.6364 319.54 29.065 324.016 25.2711 328.304C23.1167 330.862 20.7311 333.173 18.1195 335.242C13.7294 338.304 8.97363 340.554 3.84653 341.995C-12.4198 346.956 -29.0403 349.416 -46.0093 349.374C-51.6642 349.589 -57.3083 349.443 -62.9442 348.932C-66.4165 348.528 -69.7984 347.462 -72.9067 349.657C-75.243 351.309 -76.8641 354.512 -78.6874 356.697C-79.9357 358.199 -80.812 359.842 -82.8794 360.233C-84.3297 360.424 -85.7549 360.309 -87.1548 359.888C-95.3484 357.91 -105.268 354.222 -110.94 347.187Z" fill="#36917A"/>
<path d="M-24.47 332.277C-14.4676 324.038 -5.32766 314.818 2.95199 304.618C18.7044 285.21 28.4035 261.692 43.1816 241.588C48.5254 234.318 55.5726 227.878 64.0791 226.231C72.7738 224.548 81.7751 228.163 88.9266 233.778C105.95 247.136 113.662 270.183 128.042 286.736C149.124 311.01 181.604 318.557 211.94 324.869L288.808 340.867C290.29 341.038 291.639 341.588 292.854 342.517C301.747 350.667 276.754 358.994 272.674 360.402C246.065 369.599 217.711 375.288 190.169 380.357C156.819 386.461 123.224 389.934 89.3818 390.776C58.446 391.434 27.5937 389.932 -3.17506 386.268C-17.5857 384.559 -31.9627 382.408 -46.2466 379.725C-55.288 378.044 -70.9717 370.245 -61.5302 358.311C-58.6518 354.673 -54.5262 352.499 -50.5913 350.268C-41.4107 345.058 -32.7029 339.061 -24.47 332.277Z" fill="#225B4C"/>
<path d="M25.7102 74.0164C33.1763 74.0164 39.229 80.0744 39.229 87.5477C39.2186 87.8891 39.194 88.2251 39.1565 88.5557C39.7715 88.4329 40.4147 88.3343 41.0886 88.2647C48.5547 88.2647 54.6073 94.3227 54.6073 101.796C54.6073 109.269 48.5551 115.328 41.0886 115.328H-1.08877C-8.55487 115.328 -14.6075 109.269 -14.6075 101.796C-14.6075 94.3227 -8.55523 88.2647 -1.08877 88.2647C0.400383 88.31 1.78852 88.6214 3.05887 89.143C4.95172 86.7437 7.88362 85.2037 11.1746 85.2037C11.5933 85.2162 11.9952 85.2401 12.3828 85.2737C13.4637 78.8836 19.0187 74.0167 25.7099 74.0167L25.7102 74.0164Z" fill="white"/>
<path d="M356.71 142.016C364.176 142.016 370.229 148.074 370.229 155.548C370.219 155.889 370.194 156.225 370.156 156.556C370.772 156.433 371.415 156.334 372.089 156.265C379.555 156.265 385.607 162.323 385.607 169.796C385.607 177.269 379.555 183.328 372.089 183.328H329.911C322.445 183.328 316.392 177.269 316.392 169.796C316.392 162.323 322.445 156.265 329.911 156.265C331.4 156.31 332.789 156.621 334.059 157.143C335.952 154.744 338.884 153.204 342.175 153.204C342.593 153.216 342.995 153.24 343.383 153.274C344.464 146.884 350.019 142.017 356.71 142.017L356.71 142.016Z" fill="white"/>
<path d="M140 375.554C140 375.554 140.654 324.505 169.441 323.851C169.441 323.851 174.014 272.803 217.854 278.038C217.978 278.053 218.549 277.417 218.645 277.335C219.38 276.724 220.145 276.151 220.94 275.621C223.536 273.864 226.345 272.564 229.363 271.716C231.385 271.154 233.446 270.85 235.545 270.805C237.642 270.76 239.715 270.976 241.759 271.451C244.584 272.201 247.266 273.296 249.81 274.737C252.353 276.178 254.672 277.916 256.768 279.952C257.995 281.081 259.167 282.272 260.287 283.509C260.895 284.177 261.47 284.874 262.065 285.557C262.764 286.358 263.608 286.195 264.555 286.089C265.633 286.024 266.712 286.02 267.79 286.073C270.254 286.077 272.708 285.924 275.151 285.616C279.118 285.084 283.002 284.194 286.805 282.946C287.714 282.649 288.615 282.331 289.51 281.994C291.844 281.116 294.11 280.091 296.311 278.921C298.604 277.702 300.803 276.328 302.906 274.802C321.877 261.026 358.518 278.695 352.628 304.874C352.628 304.874 401.696 298.33 395.156 336.29C395.156 336.29 437.094 333.196 423.785 373.212L140 375.554Z" fill="#4C9C6D"/>
<path d="M306.614 341.815C297.621 341.224 288.615 341.076 279.596 341.367C280.43 341.261 281.282 341.198 282.107 341.041C278.025 341.82 273.755 342.003 269.634 342.478C268.179 342.647 266.5 343.617 265.089 344.066C263.489 344.573 261.877 345.036 260.249 345.447C253.129 347.178 245.906 347.993 238.579 347.891C232.404 347.871 225.578 348.142 219.766 350.396C213.537 352.88 207.488 355.75 201.624 359.005C195.861 362.131 189.879 365.197 184.417 368.829C181.781 370.777 179.425 373.019 177.352 375.556L410.237 373.571C378.596 359.657 344.796 346.819 310.617 342.513C303.54 341.803 302.205 341.571 306.614 341.815C302.205 341.567 302.205 341.526 306.614 341.815Z" fill="#FDDEA0"/>
<path d="M360.346 341.825C358.259 338.167 356.727 334.291 355.744 330.196C354.77 328.761 353.89 327.271 353.103 325.726C351.187 321.748 348.79 318.081 345.914 314.731C342.713 311.17 339.521 307.681 336.443 304.012C332.057 298.772 327.18 294.044 321.808 289.825C316.325 285.523 309.504 281.11 302.476 279.952C300.24 279.586 297.99 279.343 295.726 279.227C293.127 280.525 290.453 281.642 287.702 282.58C284.952 283.515 282.152 284.261 279.301 284.817C276.449 285.374 273.574 285.737 270.673 285.902C267.773 286.069 264.875 286.038 261.979 285.812C261.908 285.808 261.836 285.688 261.802 285.639C261.616 285.396 261.422 285.166 261.233 284.931C261.092 284.703 260.907 284.524 260.674 284.393C260.44 284.302 260.21 284.312 259.986 284.424C259.674 284.577 259.56 284.915 259.405 285.198C255.006 293.22 258.636 302.054 258.396 310.569C258.164 318.791 257.014 326.617 258.543 334.82C261.355 349.962 260.306 362.213 256.019 373.942L371.036 372.346C369.326 369.387 368.071 366.244 367.268 362.922C366.463 359.6 366.145 356.231 366.31 352.817C366.55 346.12 365.323 350.318 360.346 341.825Z" fill="#FDDEA0"/>
<path d="M264.736 396.333C265.264 394.325 265.763 392.312 266.234 390.29C266.691 388.321 267.121 386.344 267.522 384.361C267.916 382.431 268.278 380.497 268.617 378.556C268.945 376.667 269.246 374.774 269.524 372.878C269.793 371.034 270.035 369.185 270.253 367.332C270.467 365.531 270.655 363.729 270.818 361.923C270.979 360.169 271.115 358.414 271.23 356.657C271.34 354.955 271.429 353.247 271.495 351.537C271.56 349.88 271.605 348.225 271.627 346.568C271.649 344.964 271.654 343.362 271.637 341.758C271.619 340.207 271.584 338.658 271.529 337.109C271.478 335.613 271.411 334.119 271.323 332.627C271.24 331.189 271.142 329.752 271.026 328.317C270.914 326.939 270.787 325.561 270.647 324.186C270.51 322.867 270.361 321.55 270.196 320.234C270.039 318.978 269.87 317.723 269.687 316.469C269.511 315.277 269.326 314.087 269.128 312.897C268.939 311.771 268.739 310.646 268.529 309.521C268.329 308.464 268.121 307.404 267.901 306.348C267.695 305.355 267.481 304.367 267.255 303.383C267.043 302.459 266.825 301.542 266.603 300.627C266.391 299.775 266.173 298.929 265.953 298.09C265.747 297.317 265.535 296.545 265.315 295.772C265.117 295.075 264.913 294.378 264.704 293.685C264.516 293.064 264.322 292.444 264.127 291.826C263.954 291.284 263.776 290.744 263.595 290.204C263.438 289.746 263.281 289.283 263.118 288.822C262.983 288.443 262.847 288.066 262.706 287.689C262.6 287.396 262.486 287.102 262.374 286.809C262.292 286.601 262.209 286.393 262.125 286.185C262.064 286.069 262.013 285.949 261.977 285.822C261.97 285.798 261.96 285.773 261.948 285.751C262.001 285.757 262.054 285.759 262.109 285.759C264.602 285.529 267.072 285.158 269.522 284.644C272.599 284.247 275.689 284.112 278.789 284.241C281.811 284.169 284.828 284.288 287.838 284.597C289.593 284.821 291.315 285.197 293.005 285.724C349.434 288.51 367.59 396.329 367.59 396.329L264.736 396.333Z" fill="#00B2C9"/>
<path d="M141.181 472.515C157.638 467.625 172.613 460.17 189.676 456.523C203.504 453.571 218.135 453.246 232.57 453.207C255.573 453.146 278.557 453.76 301.524 455.052C326.637 456.472 345.099 464.595 394.906 450.429C411.455 445.724 455.278 440.805 463.859 429.524C469.873 421.626 480.122 410.091 454.854 395.268C444.482 389.181 408.42 379.991 396.696 375.368C384.972 370.746 371.628 368.936 358.421 367.705C283.064 360.703 207.168 370.821 131.675 376.155C43.0582 382.417 -46.6699 368.036 -135.161 375.12C-178.005 378.548 -181.11 403.307 -173.314 413.351C-161.294 428.831 -105.492 436.715 -81.0738 437.435C-56.6518 438.158 -30.7358 436.671 -9.32631 445.303C0.747907 449.366 9.01072 455.397 18.1685 460.481C52.641 479.628 101.235 484.385 141.181 472.515Z" fill="#00B2C9"/>
<path fill-rule="evenodd" clip-rule="evenodd" d="M39.7518 163.789C39.7617 163.81 39.6972 163.793 39.676 163.803C39.6587 163.811 39.6503 163.826 39.6363 163.84C39.6262 163.853 39.6143 163.863 39.6095 163.88C39.6046 163.898 39.6108 163.919 39.6078 163.938C39.6031 163.952 39.5928 163.968 39.5881 163.983C39.5814 164.001 39.5783 164.022 39.5716 164.038C39.5634 164.051 39.5531 164.065 39.5468 164.076C39.5366 164.09 39.53 164.105 39.5199 164.118C39.4087 164.251 39.3047 164.389 39.1861 164.52C38.3326 165.453 37.351 166.216 36.1721 166.838C30.8424 169.656 33.1659 167.359 28.5675 166.002C27.8059 165.779 27.1232 165.097 27.4909 164.419C27.9151 163.644 29.8262 163.205 30.7663 163.023C33.2089 162.562 35.9018 162.413 38.4619 162.505C38.6282 162.512 38.7875 162.51 38.9493 162.528C38.9811 162.53 39.0119 162.547 39.0371 162.563C39.0641 162.58 39.0893 162.596 39.1106 162.617C39.1242 162.638 39.1358 162.663 39.1455 162.688C39.1533 162.713 39.1612 162.738 39.1653 162.762C39.169 162.792 39.1655 162.818 39.1694 162.847C39.1715 162.873 39.1755 162.9 39.1795 162.926C39.1835 162.953 39.1836 162.981 39.1933 163.006C39.2012 163.03 39.2167 163.052 39.2302 163.075C39.2433 163.106 39.2563 163.139 39.2732 163.168C39.2898 163.203 39.3122 163.234 39.3309 163.265C39.3457 163.298 39.3567 163.332 39.3737 163.361C39.3905 163.392 39.4147 163.424 39.4372 163.455C39.4558 163.486 39.4689 163.517 39.4896 163.546C39.512 163.578 39.5345 163.607 39.5608 163.637C39.5853 163.665 39.6098 163.692 39.6383 163.717C39.6704 163.743 39.7372 163.753 39.7518 163.789Z" fill="white"/>
<path fill-rule="evenodd" clip-rule="evenodd" d="M40.8665 164.626C40.8828 164.634 40.8383 164.658 40.8299 164.672C40.8234 164.687 40.8263 164.7 40.8255 164.713C40.8267 164.724 40.8259 164.737 40.8326 164.749C40.8376 164.761 40.852 164.769 40.8587 164.783C40.8655 164.794 40.8646 164.807 40.8713 164.821C40.8762 164.832 40.8829 164.846 40.8896 164.857C40.8926 164.871 40.8919 164.882 40.8949 164.893C40.896 164.907 40.899 164.918 40.8982 164.931C40.9071 165.061 40.9121 165.192 40.9132 165.325C40.9253 166.982 40.2358 169.75 38.8796 170.848C37.9829 171.57 37.0694 171.018 36.1026 171.327C31.2573 172.88 37.4519 166.425 38.4343 165.496C38.78 165.175 39.1258 164.852 39.4891 164.548C39.582 164.47 39.6768 164.389 39.7768 164.317C39.7946 164.301 39.8211 164.297 39.8438 164.293C39.8667 164.287 39.8893 164.284 39.9115 164.29C39.932 164.291 39.9502 164.299 39.9665 164.308C39.9827 164.318 40.0008 164.329 40.0168 164.343C40.031 164.355 40.0449 164.373 40.0608 164.389C40.075 164.401 40.0912 164.411 40.1072 164.425C40.1213 164.439 40.1355 164.453 40.1534 164.466C40.1698 164.474 40.1902 164.477 40.2104 164.484C40.234 164.495 40.2576 164.508 40.2814 164.517C40.3088 164.528 40.3366 164.533 40.3622 164.542C40.3878 164.553 40.4093 164.568 40.4351 164.575C40.4608 164.584 40.4924 164.588 40.5182 164.595C40.5457 164.604 40.5675 164.615 40.5953 164.62C40.6228 164.629 40.6507 164.633 40.6823 164.637C40.7083 164.64 40.7361 164.644 40.7643 164.642C40.798 164.642 40.8372 164.615 40.8665 164.626Z" fill="white"/>
<path fill-rule="evenodd" clip-rule="evenodd" d="M40.9163 162.859C40.9341 162.873 40.9324 162.809 40.9469 162.788C40.9591 162.771 40.9763 162.767 40.9899 162.758C41.0053 162.752 41.019 162.741 41.0359 162.741C41.0547 162.74 41.0728 162.75 41.0916 162.75C41.1102 162.751 41.1237 162.744 41.1427 162.74C41.1635 162.737 41.1802 162.74 41.1991 162.738C41.2142 162.735 41.2279 162.726 41.2431 162.722C41.2585 162.715 41.2738 162.71 41.2891 162.706C41.4456 162.627 41.5999 162.554 41.7532 162.468C42.8501 161.839 43.8111 161.046 44.6752 160.032C48.591 155.451 45.8417 157.212 45.528 152.429C45.474 151.635 44.9623 150.821 44.2189 151.031C43.3687 151.273 42.5198 153.043 42.1397 153.922C41.1525 156.204 40.4175 158.799 39.9455 161.321C39.9169 161.48 39.881 161.637 39.8635 161.799C39.8578 161.831 39.8689 161.863 39.8783 161.894C39.8877 161.924 39.8991 161.951 39.9146 161.973C39.932 161.995 39.9535 162.011 39.9751 162.025C39.9967 162.04 40.0222 162.051 40.044 162.061C40.0715 162.071 40.0977 162.072 40.1251 162.083C40.1489 162.092 40.1745 162.101 40.2001 162.112C40.2239 162.121 40.2515 162.128 40.2732 162.141C40.2968 162.154 40.3142 162.175 40.3338 162.192C40.3622 162.216 40.3893 162.232 40.416 162.255C40.4444 162.281 40.4709 162.307 40.5011 162.333C40.5278 162.355 40.5567 162.372 40.5815 162.396C40.6081 162.42 40.6324 162.452 40.6607 162.478C40.6835 162.503 40.7123 162.522 40.7368 162.55C40.7614 162.576 40.7857 162.607 40.81 162.639C40.8307 162.668 40.855 162.698 40.8698 162.732C40.888 162.771 40.8822 162.834 40.9163 162.859Z" fill="white"/>
<path fill-rule="evenodd" clip-rule="evenodd" d="M41.4871 164.126C41.4916 164.145 41.522 164.108 41.5428 164.104C41.5544 164.099 41.5689 164.105 41.5819 164.108C41.5911 164.11 41.6059 164.113 41.6147 164.123C41.6274 164.129 41.6319 164.146 41.6427 164.155C41.6514 164.165 41.6662 164.167 41.6752 164.174C41.6877 164.184 41.6983 164.194 41.7109 164.202C41.7199 164.208 41.733 164.209 41.7421 164.213C41.7548 164.22 41.7657 164.224 41.7787 164.227C41.9058 164.261 42.0309 164.298 42.1602 164.327C43.7721 164.702 46.6266 164.636 47.9931 163.554C48.8911 162.839 48.5548 161.824 49.0677 160.947C51.6438 156.559 43.9904 161.192 42.8707 161.947C42.4799 162.21 42.0887 162.48 41.7151 162.768C41.6169 162.842 41.5169 162.915 41.4258 162.995C41.406 163.013 41.3971 163.035 41.3864 163.056C41.3776 163.078 41.3687 163.1 41.3675 163.121C41.3643 163.141 41.3687 163.162 41.3751 163.179C41.3794 163.2 41.3895 163.219 41.3959 163.237C41.4059 163.256 41.42 163.27 41.4301 163.289C41.4421 163.307 41.4503 163.326 41.4586 163.344C41.4686 163.363 41.479 163.377 41.487 163.4C41.4916 163.415 41.4903 163.437 41.4966 163.456C41.4988 163.481 41.5047 163.508 41.5104 163.536C41.5144 163.562 41.5145 163.591 41.5184 163.619C41.5205 163.645 41.5284 163.67 41.5343 163.695C41.5362 163.725 41.5344 163.755 41.5364 163.783C41.5366 163.809 41.5426 163.834 41.5427 163.862C41.5428 163.892 41.541 163.92 41.5373 163.95C41.5356 163.978 41.5339 164.006 41.5247 164.033C41.5189 164.066 41.4832 164.098 41.4871 164.126Z" fill="white"/>
<path fill-rule="evenodd" clip-rule="evenodd" d="M39.3892 161.085C39.9302 161.424 40.5824 162.024 41.1928 162.784C42.3246 164.203 42.8858 165.64 42.4406 165.996C41.9973 166.351 40.717 165.489 39.5833 164.073C38.9729 163.31 38.5314 162.543 38.3194 161.942C38.0029 161.941 37.6877 161.798 37.4737 161.534C37.0964 161.062 37.1742 160.377 37.6431 160.001C38.114 159.624 38.8005 159.698 39.1759 160.171C39.388 160.437 39.457 160.774 39.3892 161.085Z" fill="#6A4D31"/>
<path d="M473.669 354.132C473.09 354.132 471.435 355.85 470.88 356.368C468.051 359.051 465.637 357.928 463.921 357.928C462.206 357.928 460.829 359.377 459.704 360.199C458.049 361.419 455.984 362.942 451.465 361.662C447.995 360.822 444.519 360.803 441.039 361.602C440.137 362.606 439.093 363.435 437.91 364.09C434.174 365.972 430.222 367.116 426.06 367.523C417.954 368.562 408.204 367.861 399.227 368.465C395.713 368.706 393.067 370.907 390.965 372.634C375.78 385.118 385.201 410 385.201 410H375.259C375.083 401.389 375.85 392.861 377.556 384.417C375.419 382.574 373.104 380.995 370.609 379.678C368.116 378.359 365.505 377.338 362.78 376.611C355.109 374.833 353.285 370.942 351.824 367.801C350.845 365.697 350.072 364.03 347.546 362.653C345.949 361.729 344.255 361.053 342.461 360.623C339.669 359.921 340.866 359.292 335.562 353.648C334.831 352.843 333.977 352.197 333 351.715H338.039C341.241 354.954 342.183 355.183 343.729 355.583C345.954 356.109 348.056 356.942 350.035 358.083C351.477 358.852 352.738 359.852 353.817 361.081C356.005 358.47 358.653 356.472 361.766 355.088C366.102 353.25 366.706 351.16 367.769 348.826L370.162 348.356C370.162 348.356 370.234 353.493 364.363 357.25C361.769 358.977 359.521 361.076 357.623 363.546C357.174 364.127 356.752 364.694 356.389 365.262C356.438 365.37 356.498 365.493 356.546 365.602C357.826 368.356 358.745 370.338 363.951 371.535C366.711 372.238 369.366 373.218 371.921 374.475C374.475 375.729 376.873 377.236 379.113 378.991C380.271 375.34 382.178 372.139 384.84 369.384C394.275 360.319 404.169 364.502 421.553 363.681C429.912 363.294 434.565 361.613 437.271 359.97C442.574 356.755 442.222 346.35 442.222 346.35L445.086 346C445.292 348.056 445.248 350.104 444.951 352.15C444.655 354.194 444.116 356.171 443.336 358.083C446.361 357.704 449.35 357.903 452.299 358.676C455.368 359.546 456.419 358.773 457.868 357.697C458.644 357.037 459.509 356.528 460.463 356.174C461.419 355.817 462.405 355.637 463.426 355.632C464.785 355.604 466.123 355.769 467.435 356.127C468.366 356.368 468.861 354.905 471.458 354.132H473.669Z" fill="#9B6736"/>
<path d="M318.545 346.5C316.774 344.964 315.703 343.008 315.693 340.872C315.67 335.897 321.385 331.837 328.459 331.803C329.774 331.797 331.081 331.936 332.38 332.219C333.876 331.057 335.468 330.189 337.155 329.615C338.843 329.041 340.558 328.783 342.303 328.842C342.673 328.841 343.037 328.856 343.403 328.877C343.259 328.349 343.182 327.803 343.175 327.244C343.152 322.269 348.865 318.206 355.939 318.173C363.013 318.14 368.765 322.152 368.788 327.124C368.785 327.843 368.672 328.53 368.448 329.184C369.781 328.866 371.126 328.703 372.484 328.696C379.556 328.663 385.309 332.673 385.332 337.645C385.343 340.05 384.004 342.237 381.826 343.864C388.187 344.356 393.14 348.137 393.161 352.753C393.185 357.727 387.471 361.786 380.397 361.819C375.687 361.841 371.574 360.066 369.337 357.415C367.248 358.253 365.11 358.669 362.923 358.665C358.274 358.686 354.209 356.956 351.95 354.357C350.386 355.373 348.753 356.126 347.047 356.616C345.341 357.108 343.613 357.323 341.866 357.261C339.094 357.319 336.392 356.775 333.762 355.627C333.514 360.436 327.921 364.304 321.021 364.336C313.947 364.369 308.196 360.36 308.173 355.39C308.152 350.992 312.617 347.313 318.545 346.5Z" fill="#2A6C5B"/>
<path d="M366.545 300.5C364.774 298.964 363.703 297.008 363.693 294.872C363.67 289.897 369.385 285.837 376.459 285.803C377.774 285.797 379.081 285.936 380.38 286.219C381.876 285.057 383.468 284.189 385.155 283.615C386.843 283.041 388.558 282.783 390.303 282.842C390.673 282.841 391.037 282.856 391.403 282.877C391.259 282.349 391.182 281.803 391.175 281.244C391.152 276.269 396.865 272.206 403.939 272.173C411.013 272.14 416.765 276.152 416.788 281.124C416.785 281.843 416.672 282.53 416.448 283.184C417.781 282.866 419.126 282.703 420.484 282.696C427.556 282.663 433.309 286.673 433.332 291.645C433.343 294.05 432.004 296.237 429.826 297.864C436.187 298.356 441.14 302.137 441.161 306.753C441.185 311.727 435.471 315.786 428.397 315.819C423.687 315.841 419.574 314.066 417.337 311.415C415.248 312.253 413.11 312.669 410.923 312.665C406.274 312.686 402.209 310.956 399.95 308.357C398.386 309.373 396.753 310.126 395.047 310.616C393.341 311.108 391.613 311.323 389.866 311.261C387.094 311.319 384.392 310.775 381.762 309.627C381.514 314.436 375.921 318.304 369.021 318.336C361.947 318.369 356.196 314.36 356.173 309.39C356.152 304.992 360.617 301.313 366.545 300.5Z" fill="#2A6C5B"/>
<path d="M196.365 256.397C198.644 257.387 201.02 257.982 203.496 258.18C208.357 258.714 214.214 258.358 219.613 258.678C221.486 258.897 223.14 259.619 224.577 260.841C233.705 267.325 228.041 279.435 228.041 279.435H234.01C234.12 275.2 233.691 271.019 232.725 266.891C235.379 264.947 238.311 263.617 241.521 262.905C246.132 261.976 247.213 259.951 248.091 258.321C248.342 257.731 248.688 257.207 249.13 256.746C249.574 256.284 250.084 255.919 250.664 255.645C251.64 255.162 252.662 254.813 253.731 254.601C255.399 254.233 254.687 253.913 257.868 250.971C258.319 250.544 258.834 250.213 259.41 249.979H256.38C254.458 251.647 253.897 251.774 252.967 251.979C251.647 252.252 250.384 252.684 249.174 253.277C248.32 253.665 247.561 254.187 246.895 254.843C245.537 253.447 243.944 252.408 242.121 251.723C241.712 251.615 241.321 251.462 240.951 251.262C240.577 251.059 240.236 250.818 239.921 250.532C239.609 250.249 239.333 249.932 239.097 249.583C238.857 249.232 238.665 248.859 238.518 248.464L237.079 248.222C237.079 248.373 237.13 250.947 240.568 252.845C242.09 253.721 243.441 254.811 244.617 256.116C244.895 256.423 245.139 256.716 245.368 257.009C245.329 257.065 245.295 257.126 245.266 257.187C244.488 258.614 243.941 259.646 240.809 260.268C237.557 260.971 234.545 262.239 231.771 264.076C231.007 262.142 229.836 260.5 228.256 259.148C222.591 254.435 216.647 256.614 206.194 256.194C201.166 255.977 198.378 255.111 196.748 254.257C193.565 252.589 193.767 247.19 193.767 247.19L192.05 247C191.711 251.393 193.099 254.845 196.365 256.397Z" fill="#915237"/>
<path d="M185.008 240.824C182.974 239.078 181.75 236.861 181.75 234.447C181.75 228.824 188.362 224.263 196.519 224.263C198.035 224.263 199.541 224.427 201.037 224.754C202.768 223.448 204.61 222.475 206.557 221.835C208.507 221.195 210.486 220.913 212.497 220.989C212.924 220.989 213.344 221.009 213.766 221.034C213.603 220.436 213.516 219.819 213.512 219.187C213.512 213.563 220.122 209 228.279 209C236.436 209 243.046 213.566 243.046 219.187C243.039 219.999 242.904 220.775 242.644 221.514C244.182 221.161 245.734 220.983 247.299 220.983C255.454 220.983 262.066 225.546 262.066 231.167C262.066 233.886 260.51 236.351 257.99 238.178C265.322 238.768 271.013 243.069 271.013 248.286C271.013 253.91 264.403 258.467 256.246 258.467C250.814 258.467 246.081 256.44 243.517 253.43C241.103 254.367 238.636 254.826 236.113 254.81C230.753 254.81 226.075 252.833 223.484 249.883C221.676 251.022 219.788 251.865 217.818 252.409C215.849 252.957 213.855 253.191 211.841 253.112C208.644 253.162 205.532 252.534 202.505 251.222C202.194 256.657 195.723 261 187.767 261C179.61 261 173 256.437 173 250.819C173 245.847 178.168 241.712 185.008 240.824Z" fill="#2A6C5B"/>
<path d="M282.98 306.325C282.32 306.341 280.48 308.346 279.861 308.953C276.71 312.091 273.926 310.878 271.97 310.926C270.014 310.973 268.484 312.664 267.224 313.632C265.371 315.07 263.059 316.864 257.871 315.53C253.891 314.668 249.925 314.744 245.98 315.752C244.979 316.922 243.812 317.896 242.481 318.676C238.273 320.926 233.799 322.34 229.065 322.921C219.85 324.331 208.713 323.803 198.493 324.742C194.493 325.114 191.538 327.698 189.189 329.726C172.221 344.384 183.657 372.494 183.657 372.494L172.32 372.771C171.88 362.956 172.516 353.211 174.226 343.534C171.738 341.493 169.055 339.757 166.173 338.325C163.293 336.89 160.287 335.798 157.16 335.045C148.364 333.232 146.175 328.845 144.422 325.304C143.247 322.932 142.319 321.053 139.401 319.553C137.554 318.544 135.603 317.821 133.545 317.38C130.343 316.658 131.69 315.906 125.485 309.619C124.629 308.721 123.637 308.008 122.51 307.486L128.256 307.346C131.996 310.949 133.077 311.184 134.852 311.598C137.403 312.135 139.823 313.027 142.111 314.273C143.777 315.109 145.244 316.215 146.508 317.586C148.929 314.548 151.893 312.196 155.405 310.531C160.298 308.314 160.929 305.914 162.075 303.224L164.791 302.621C164.791 302.621 165.016 308.477 158.427 312.924C155.516 314.965 153.011 317.422 150.916 320.291C150.42 320.966 149.955 321.625 149.557 322.282C149.615 322.404 149.687 322.542 149.746 322.665C151.282 325.771 152.385 328.004 158.355 329.224C161.521 329.95 164.575 330.992 167.525 332.354C170.471 333.714 173.247 335.366 175.851 337.304C177.07 333.109 179.155 329.406 182.114 326.19C192.621 315.591 204.018 320.085 223.819 318.664C233.339 317.991 238.598 315.945 241.638 313.996C247.596 310.182 246.905 298.327 246.905 298.327L250.16 297.848C250.452 300.187 250.459 302.524 250.178 304.865C249.897 307.204 249.337 309.474 248.501 311.676C251.94 311.158 255.353 311.302 258.738 312.102C262.262 313.009 263.439 312.098 265.061 310.83C265.927 310.056 266.9 309.451 267.978 309.021C269.058 308.588 270.177 308.355 271.341 308.321C272.89 308.251 274.42 308.402 275.927 308.774C276.995 309.023 277.519 307.341 280.459 306.387L282.98 306.325Z" fill="#9B6736"/>
<path d="M212.008 292.824C209.974 291.078 208.75 288.861 208.75 286.447C208.75 280.824 215.362 276.263 223.519 276.263C225.035 276.263 226.541 276.427 228.037 276.754C229.768 275.448 231.61 274.475 233.557 273.835C235.507 273.195 237.486 272.913 239.497 272.989C239.924 272.989 240.344 273.009 240.766 273.034C240.603 272.436 240.516 271.819 240.512 271.187C240.512 265.563 247.122 261 255.279 261C263.436 261 270.046 265.566 270.046 271.187C270.039 271.999 269.904 272.775 269.644 273.514C271.182 273.161 272.734 272.983 274.299 272.983C282.454 272.983 289.066 277.546 289.066 283.167C289.066 285.886 287.51 288.351 284.99 290.178C292.322 290.768 298.013 295.069 298.013 300.286C298.013 305.91 291.403 310.467 283.246 310.467C277.814 310.467 273.081 308.44 270.517 305.43C268.103 306.367 265.636 306.826 263.113 306.81C257.753 306.81 253.075 304.833 250.484 301.883C248.676 303.022 246.788 303.865 244.818 304.409C242.849 304.957 240.855 305.191 238.841 305.112C235.644 305.162 232.532 304.534 229.505 303.222C229.194 308.657 222.723 313 214.767 313C206.61 313 200 308.437 200 302.819C200 297.847 205.168 293.712 212.008 292.824Z" fill="#2A6C5B"/>
<path d="M103.008 301.824C100.974 300.078 99.7497 297.861 99.7497 295.447C99.7497 289.824 106.362 285.263 114.519 285.263C116.035 285.263 117.541 285.427 119.037 285.754C120.768 284.448 122.61 283.475 124.557 282.835C126.507 282.195 128.486 281.913 130.497 281.989C130.924 281.989 131.344 282.009 131.766 282.034C131.603 281.436 131.516 280.819 131.512 280.187C131.512 274.563 138.122 270 146.279 270C154.436 270 161.046 274.566 161.046 280.187C161.039 280.999 160.904 281.775 160.644 282.514C162.182 282.161 163.734 281.983 165.299 281.983C173.454 281.983 180.066 286.546 180.066 292.167C180.066 294.886 178.51 297.351 175.99 299.178C183.322 299.768 189.013 304.069 189.013 309.286C189.013 314.91 182.403 319.467 174.246 319.467C168.814 319.467 164.081 317.44 161.517 314.43C159.103 315.367 156.636 315.826 154.113 315.81C148.753 315.81 144.075 313.833 141.484 310.883C139.676 312.022 137.788 312.865 135.818 313.409C133.849 313.957 131.855 314.191 129.841 314.112C126.644 314.162 123.532 313.534 120.505 312.222C120.194 317.657 113.723 322 105.767 322C97.6098 322 91 317.437 91 311.819C91 306.847 96.1685 302.712 103.008 301.824Z" fill="#2A6C5B"/>
<defs>
<linearGradient id="paint0_linear_121_549" x1="187.5" y1="-31" x2="187.5" y2="485" gradientUnits="userSpaceOnUse">
<stop offset="0.00775194" stop-color="#D8ECFF"/>
<stop offset="0.753644" stop-color="#C8E4FF"/>
<stop offset="1" stop-color="white" stop-opacity="0"/>
</linearGradient>
</defs>
</svg>
