<svg width="240" height="163" viewBox="0 0 240 163" fill="none" xmlns="http://www.w3.org/2000/svg">
<g id="Group 5933">
<g id="woman">
<path id="Vector" d="M50.2151 27.3062C50.2151 30.6811 48.5052 31.9213 43.7498 33.6342C43.9022 38.4142 45.5149 44.867 50.778 52.6859C50.778 52.6859 54.4154 61.0628 64.9699 53.3514" stroke="#223F80" stroke-width="1.26559" stroke-miterlimit="10" stroke-linecap="round" stroke-linejoin="round"/>
<path id="Vector_2" d="M60.3168 56.2012L60.7615 62.2101" stroke="#223F80" stroke-width="1.26559" stroke-miterlimit="10" stroke-linecap="round" stroke-linejoin="round"/>
<path id="Vector_3" d="M52.5579 34.9716C52.5579 34.9716 52.7955 38.2694 52.8825 39.3554C52.9507 40.2447 52.892 42.6802 55.5604 41.9712" stroke="#223F80" stroke-width="1.26559" stroke-miterlimit="10" stroke-linecap="round" stroke-linejoin="round"/>
<path id="Vector_4" d="M63.103 44.3021C63.103 44.3021 65.1701 46.7362 60.3396 48.2886" stroke="#223F80" stroke-width="1.26559" stroke-miterlimit="10" stroke-linecap="round" stroke-linejoin="round"/>
<path id="Vector_5" d="M60.1854 35.9684L60.2796 35.9434C60.5936 35.8599 60.7466 35.5504 60.6715 35.2679L60.2127 33.5412C60.1293 33.2273 59.8198 33.0743 59.5372 33.1494L59.4431 33.1744C59.1291 33.2578 58.9761 33.5673 59.0512 33.8499L59.51 35.5765C59.585 35.859 59.9029 36.0434 60.1854 35.9684Z" fill="#223F80"/>
<path id="Vector_6" d="M48.4469 38.718L48.5411 38.693C48.855 38.6096 49.008 38.3 48.933 38.0175L48.4742 36.2909C48.3908 35.977 48.0812 35.8239 47.7987 35.899L47.7045 35.924C47.3906 36.0074 47.2376 36.317 47.3127 36.5995L47.7714 38.3261C47.8465 38.6087 48.1644 38.7931 48.4469 38.718Z" fill="#223F80"/>
<path id="Vector_7" d="M73.4175 26.7736C75.0916 30.7515 70.5482 36.3634 67.7222 33.1016L61.6052 24.6644C61.6052 24.6644 51.6754 28.1817 48.3165 22.4546" stroke="#223F80" stroke-width="1.26559" stroke-miterlimit="10" stroke-linecap="round" stroke-linejoin="round"/>
<path id="Vector_8" d="M75.9698 52.8827L73.3506 43.0253C73.3506 43.0253 72.8973 42.2047 73.7311 41.042C74.5335 39.8878 78.947 36.7657 73.8785 30.7184" stroke="#223F80" stroke-width="1.26559" stroke-miterlimit="10" stroke-linecap="round" stroke-linejoin="round"/>
<path id="Vector_9" d="M78.9014 51.6636C78.9014 51.6636 94.4301 49.3048 90.0811 45.5466C86.495 42.4477 87.4329 34.3335 83.5419 28.2503C81.4276 24.9449 80.1813 23.0133 77.2142 20.4458C74.9788 18.5116 73.5475 17.579 70.8862 16.2922C67.1207 14.4716 60.5506 13.4851 60.5506 13.4851C60.5506 13.4851 54.6597 12.812 51.2698 14.1179C48.6688 15.12 47.3959 15.4245 45.1527 17.2819C43.2188 18.883 41.7534 20.3727 40.5124 22.5552C39.2714 24.7377 34.563 34.8997 39.2464 34.8997C40.5124 34.8997 43.465 45.5466 43.465 45.5466C43.465 45.5466 46.6291 55.9473 45.7855 59.4681C44.7569 63.7612 56.5429 59.4681 56.5429 59.4681" stroke="#223F80" stroke-width="1.26559" stroke-miterlimit="10" stroke-linecap="round" stroke-linejoin="round"/>
<path id="Vector_10" d="M35.948 86.9118C35.948 86.9118 33.4303 84.8602 34.3603 81.058C35.3071 77.2281 36.8676 75.021 38.8153 71.7955C40.7631 68.5701 38.7391 67.2719 37.0874 68.2477C35.4357 69.2234 31.474 75.4067 31.474 75.4067C31.474 75.4067 26.0153 71.3134 27.6272 68.6441C27.6272 68.6441 28.9431 68.2245 30.8401 71.1155" stroke="#223F80" stroke-width="1.26559" stroke-miterlimit="10" stroke-linecap="round" stroke-linejoin="round"/>
<path id="Vector_11" d="M24.8139 67.022C24.8139 67.022 22.6729 65.7291 23.0425 68.95C23.3797 71.8477 27.4103 76.6722 27.4103 76.6722" stroke="#223F80" stroke-width="1.26559" stroke-miterlimit="10" stroke-linecap="round" stroke-linejoin="round"/>
<path id="Vector_12" d="M20.7948 69.7181C20.7948 69.7181 21.551 74.1211 24.6546 77.7788" stroke="#223F80" stroke-width="1.26559" stroke-miterlimit="10" stroke-linecap="round" stroke-linejoin="round"/>
<path id="Vector_13" d="M18.7822 74.8748C18.7822 74.8748 19.6655 77.6849 21.8967 80.588" stroke="#223F80" stroke-width="1.26559" stroke-miterlimit="10" stroke-linecap="round" stroke-linejoin="round"/>
<path id="Vector_14" d="M17.8811 79.7581C17.8811 79.7581 17.7654 83.2171 20.9961 85.2819C24.2268 87.3467 24.6334 87.3646 25.882 89.0672" stroke="#223F80" stroke-width="1.26559" stroke-miterlimit="10" stroke-linecap="round" stroke-linejoin="round"/>
<path id="Vector_15" d="M43.4291 95.2257C43.4291 95.2257 46.9047 76.2561 48.5613 70.0519C50.2504 63.8153 57.0716 62.7434 57.0716 62.7434C57.0716 62.7434 62.1064 67.6158 70.7467 64.3351C72.923 63.4905 75.4566 62.2562 77.0158 59.6251" stroke="#223F80" stroke-width="1.26559" stroke-miterlimit="10" stroke-linecap="round" stroke-linejoin="round"/>
<path id="Vector_16" d="M50.2508 105.555C50.2508 105.555 42.4875 93.5036 39.5316 89.3134C39.1418 88.7287 38.1998 87.6893 36.6407 90.2554C35.2115 92.5616 30.9563 94.4781 30.9563 94.4781" stroke="#223F80" stroke-width="1.26559" stroke-miterlimit="10" stroke-linecap="round" stroke-linejoin="round"/>
<path id="Vector_17" d="M29.3329 97.6621C29.3329 97.6621 38.3305 119.003 43.4302 126.214C44.8594 128.228 50.6088 130.891 53.9545 128.26C55.1563 127.318 58.1447 123.843 58.1447 123.843" stroke="#223F80" stroke-width="1.26559" stroke-miterlimit="10" stroke-linecap="round" stroke-linejoin="round"/>
<path id="Vector_18" d="M79.7127 139.629C76.9517 139.824 73.0213 140.052 68.6687 140.149C60.2882 140.376 59.7685 135.601 59.7685 135.601L52.9797 85.8061L50.2512 66.7065" stroke="#223F80" stroke-width="1.26559" stroke-miterlimit="10" stroke-linecap="round" stroke-linejoin="round"/>
<path id="Vector_19" d="M78.1543 55.3048C78.609 54.98 79.1937 54.5577 79.9408 54.2004C81.8573 53.2584 84.8456 52.5113 89.0683 53.1934C97.4813 54.5577 100.047 56.9289 100.047 56.9289" stroke="#223F80" stroke-width="1.26559" stroke-miterlimit="10" stroke-linecap="round" stroke-linejoin="round"/>
<path id="Vector_20" d="M96.6685 72.6816L85.2672 52.9324" stroke="#223F80" stroke-width="1.26559" stroke-miterlimit="10" stroke-linecap="round" stroke-linejoin="round"/>
<path id="Vector_21" d="M70.7606 64.7474L84.8361 109.789" stroke="#223F80" stroke-width="1.26559" stroke-miterlimit="10" stroke-linecap="round" stroke-linejoin="round"/>
</g>
<g id="Group 5931">
<g id="Rectangle 1062" filter="url(#filter0_i_77_1874)">
<path d="M111.977 60.4857C111.977 51.7098 119.091 44.5955 127.867 44.5955H223.209C231.985 44.5955 239.099 51.7098 239.099 60.4857V88.9557H111.977V60.4857Z" fill="#00F2F2"/>
</g>
<g id="Rectangle 720" filter="url(#filter1_i_77_1874)">
<path d="M109.102 56.4719C109.102 48.0616 115.92 41.2438 124.33 41.2438H219.672C228.082 41.2438 234.9 48.0616 234.9 56.4719V84.2798H109.102V56.4719Z" stroke="#2A3E7E" stroke-width="1.32419" stroke-linejoin="round"/>
</g>
<g id="Group 5929">
<path id="Rectangle 619" d="M90.5637 100.17L152.8 100.17L152.8 162.338H90.5637L90.5637 100.17Z" stroke="#2A3E7E" stroke-width="1.32419" stroke-linejoin="round"/>
<path id="Rectangle 622" d="M108.44 84.9419L90.5638 99.5079" stroke="#2A3E7E" stroke-width="1.32419" stroke-linecap="round"/>
</g>
<g id="Group 5930">
<path id="Rectangle 619_2" d="M153.463 99.508C153.097 99.508 152.8 99.8044 152.8 100.17C152.8 100.536 153.097 100.832 153.463 100.832V99.508ZM153.463 100.832H216.361V99.508H153.463V100.832ZM216.361 100.832V161.676H217.686V100.832H216.361ZM216.361 161.676H153.463V163H216.361V161.676ZM216.361 161.676V163C217.093 163 217.686 162.407 217.686 161.676H216.361ZM216.361 100.832L216.361 100.832H217.686C217.686 100.101 217.093 99.508 216.361 99.508V100.832Z" fill="#2A3E7E"/>
<path id="Rectangle 620" d="M217.023 100.17L226.293 91.5629L234.491 85.1215C234.925 84.7802 235.562 85.0897 235.562 85.6421V147.937L216.692 161.745" stroke="#2A3E7E" stroke-width="1.32419" stroke-linecap="round"/>
<path id="Rectangle 622_2" d="M172.001 84.2799L153.132 100.17" stroke="#2A3E7E" stroke-width="1.32419" stroke-linecap="round"/>
</g>
<circle id="Ellipse 496" cx="136.705" cy="139.824" r="7.38626" fill="#98F200"/>
<g id="Group">
<path id="Vector_22" d="M128.601 132.584H128.222V130.354C128.854 126.061 131.89 125.556 131.89 125.556V124.757H131.595V122.863H132.27H132.944H134.251V124.757H133.956V125.556C133.956 125.556 136.992 126.061 137.625 130.396V132.626H137.245V132.837V133.089H137.582V134.941H137.287V135.151V135.362H137.582V142.389H137.287V142.6V142.81H137.582V144.62H137.287V144.872V145.083H137.582V147.018H137.329V147.229V147.439H137.582V149.375H137.329V149.586V149.754H137.582V153.036C137.582 153.036 137.076 154.678 135.811 154.593C135.811 154.593 134.884 154.383 134.504 153.836H134.251C134.251 153.836 133.788 154.593 133.071 154.593H132.734C132.017 154.593 131.553 153.836 131.553 153.836H131.3C130.92 154.383 129.993 154.593 129.993 154.593C128.728 154.678 128.222 153.036 128.222 153.036V149.754H128.475V149.586V149.375H128.222V147.439H128.475V147.229V147.018H128.222V145.083H128.517V144.872V144.62H128.222V142.81H128.517V142.6V142.389H128.222V135.362H128.517V135.151V134.941H128.222V133.131H128.601V132.837V132.584Z" fill="#00F2F2"/>
<path id="Vector_23" d="M130.46 124.705V122.863H131.116H131.772H133.043V124.705H132.756H130.747H130.46Z" stroke="#002266" stroke-width="0.491118" stroke-miterlimit="10" stroke-linecap="round" stroke-linejoin="round"/>
<path id="Vector_24" d="M127.549 135.088H127.508V134.837H127.221V133.037H127.549V132.786H135.954V133.037H136.282V134.837H135.995V135.088H135.954" stroke="#002266" stroke-width="0.491118" stroke-miterlimit="10" stroke-linecap="round" stroke-linejoin="round"/>
<path id="Vector_25" d="M132.059 149.491H135.954H136.077V149.658H136.282V152.924C136.282 152.924 135.79 154.557 134.56 154.473C134.56 154.473 133.658 154.263 133.289 153.719H133.084C133.084 153.719 132.633 154.473 131.936 154.473H131.608C130.911 154.473 130.46 153.719 130.46 153.719H130.214C129.845 154.263 128.943 154.473 128.943 154.473C127.713 154.557 127.221 152.924 127.221 152.924V149.658H127.467V149.491H127.59H130.501" stroke="#002266" stroke-width="0.491118" stroke-miterlimit="10" stroke-linecap="round" stroke-linejoin="round"/>
<path id="Vector_26" d="M136.282 130.315V132.534H135.954V132.785H127.549V132.534H127.18V130.315C127.795 126.045 130.747 125.501 130.747 125.501V124.705H132.756V125.501C132.756 125.501 135.052 125.919 136.036 128.976" stroke="#002266" stroke-width="0.491118" stroke-miterlimit="10" stroke-linecap="round" stroke-linejoin="round"/>
<path id="Vector_27" d="M130.87 144.76H127.549H127.467V144.509H127.221V142.708H127.508V142.499H127.549" stroke="#002266" stroke-width="0.491118" stroke-miterlimit="10" stroke-linecap="round" stroke-linejoin="round"/>
<path id="Vector_28" d="M135.954 142.499H135.995V142.708H136.282V144.509H136.036V144.76H135.954H132.469" stroke="#002266" stroke-width="0.491118" stroke-miterlimit="10" stroke-linecap="round" stroke-linejoin="round"/>
<path id="Vector_29" d="M132.018 142.499H127.549H127.508V142.248H127.221V135.256H127.508V135.088H127.549H132.51" stroke="#002266" stroke-width="0.491118" stroke-miterlimit="10" stroke-linecap="round" stroke-linejoin="round"/>
<path id="Vector_30" d="M134.929 135.088H135.954H135.995V135.256H136.282V142.248H135.995V142.499H135.954H134.314" stroke="#002266" stroke-width="0.491118" stroke-miterlimit="10" stroke-linecap="round" stroke-linejoin="round"/>
<path id="Vector_31" d="M130.87 147.146H127.549H127.426V146.937H127.221V144.969H127.467V144.76H127.549" stroke="#002266" stroke-width="0.491118" stroke-miterlimit="10" stroke-linecap="round" stroke-linejoin="round"/>
<path id="Vector_32" d="M135.954 144.76H136.036V144.969H136.282V146.937H136.077V147.146H135.954H133.494" stroke="#002266" stroke-width="0.491118" stroke-miterlimit="10" stroke-linecap="round" stroke-linejoin="round"/>
<path id="Vector_33" d="M127.549 149.491H127.426V149.281H127.221V147.355H127.426V147.146H127.549" stroke="#002266" stroke-width="0.491118" stroke-miterlimit="10" stroke-linecap="round" stroke-linejoin="round"/>
</g>
<path id="Vector_34" d="M192.981 119.853C193.519 123.487 194.057 124.158 197.268 125.074C193.992 125.713 193.389 126.318 192.525 129.887C191.987 126.253 191.449 125.582 188.237 124.665C191.514 124.027 192.117 123.421 192.981 119.853Z" fill="#002266"/>
<g id="Group_2">
<g id="Group_3">
<path id="Vector_35" d="M207.458 146.075C207.458 146.868 208.087 147.496 208.881 147.496C209.676 147.496 210.305 146.868 210.305 146.075C210.305 145.283 208.881 142.244 208.881 142.244C208.881 142.244 207.458 145.316 207.458 146.075Z" fill="#4761A3"/>
<path id="Vector_36" d="M201.777 129.768H208.697C209.16 129.768 209.525 130.132 209.525 130.594V132.081H200.949V130.594C200.949 130.132 201.313 129.768 201.777 129.768Z" fill="#4761A3"/>
</g>
<g id="Group_4">
<path id="Vector_37" d="M213.09 153.633H197.23" stroke="#002266" stroke-width="0.802743" stroke-miterlimit="10" stroke-linecap="round" stroke-linejoin="round"/>
<path id="Vector_38" d="M197.23 136.952V153.633" stroke="#002266" stroke-width="0.802743" stroke-miterlimit="10" stroke-linecap="round" stroke-linejoin="round"/>
<path id="Vector_39" d="M213.09 136.952V147.918" stroke="#002266" stroke-width="0.802743" stroke-miterlimit="10" stroke-linecap="round" stroke-linejoin="round"/>
<path id="Vector_40" d="M213.09 149.537V153.633" stroke="#002266" stroke-width="0.802743" stroke-miterlimit="10" stroke-linecap="round" stroke-linejoin="round"/>
<path id="Vector_41" d="M204.514 153.633V136.952" stroke="#002266" stroke-width="0.802743" stroke-miterlimit="10" stroke-linecap="round" stroke-linejoin="round"/>
<path id="Vector_42" d="M213.09 136.952H200.541" stroke="#002266" stroke-width="0.802743" stroke-miterlimit="10" stroke-linecap="round" stroke-linejoin="round"/>
<path id="Vector_43" d="M198.72 136.952H197.23" stroke="#002266" stroke-width="0.802743" stroke-miterlimit="10" stroke-linecap="round" stroke-linejoin="round"/>
<path id="Vector_44" d="M213.09 136.952L209.547 132.096" stroke="#002266" stroke-width="0.802743" stroke-miterlimit="10" stroke-linecap="round" stroke-linejoin="round"/>
<path id="Vector_45" d="M209.547 132.096H200.972" stroke="#002266" stroke-width="0.802743" stroke-miterlimit="10" stroke-linecap="round" stroke-linejoin="round"/>
<path id="Vector_46" d="M204.514 136.952L200.971 132.096" stroke="#002266" stroke-width="0.802743" stroke-miterlimit="10" stroke-linecap="round" stroke-linejoin="round"/>
<path id="Vector_47" d="M197.23 136.952L200.972 132.096" stroke="#002266" stroke-width="0.802743" stroke-miterlimit="10" stroke-linecap="round" stroke-linejoin="round"/>
<path id="Vector_48" d="M201.932 133.417L197.23 136.952" stroke="#002266" stroke-width="0.802743" stroke-miterlimit="10" stroke-linecap="round" stroke-linejoin="round"/>
<path id="Vector_49" d="M201.799 129.784H208.719C209.183 129.784 209.547 130.147 209.547 130.609V132.096H200.972V130.609C200.972 130.147 201.336 129.784 201.799 129.784Z" stroke="#002266" stroke-width="0.802743" stroke-miterlimit="10" stroke-linecap="round" stroke-linejoin="round"/>
<path id="Vector_50" d="M207.395 146.168C207.395 146.96 208.024 147.588 208.819 147.588C209.613 147.588 210.242 146.96 210.242 146.168C210.242 145.375 208.819 142.336 208.819 142.336C208.819 142.336 207.395 145.375 207.395 146.168Z" stroke="#002266" stroke-width="0.802743" stroke-miterlimit="10" stroke-linecap="round" stroke-linejoin="round"/>
<path id="Vector_51" d="M206.496 135.404C205.604 134.735 205.185 133.791 205.558 133.295C205.932 132.799 206.958 132.94 207.849 133.609C208.741 134.278 209.16 135.222 208.787 135.718C208.413 136.213 207.387 136.073 206.496 135.404Z" stroke="#002266" stroke-width="0.802743" stroke-miterlimit="10" stroke-linecap="round" stroke-linejoin="round"/>
</g>
</g>
</g>
</g>
<defs>
<filter id="filter0_i_77_1874" x="111.977" y="39.4034" width="132.314" height="49.5523" filterUnits="userSpaceOnUse" color-interpolation-filters="sRGB">
<feFlood flood-opacity="0" result="BackgroundImageFix"/>
<feBlend mode="normal" in="SourceGraphic" in2="BackgroundImageFix" result="shape"/>
<feColorMatrix in="SourceAlpha" type="matrix" values="0 0 0 0 0 0 0 0 0 0 0 0 0 0 0 0 0 0 127 0" result="hardAlpha"/>
<feOffset dx="5.1921" dy="-5.1921"/>
<feGaussianBlur stdDeviation="4.32675"/>
<feComposite in2="hardAlpha" operator="arithmetic" k2="-1" k3="1"/>
<feColorMatrix type="matrix" values="0 0 0 0 0.679167 0 0 0 0 0.679167 0 0 0 0 0.679167 0 0 0 0.1 0"/>
<feBlend mode="normal" in2="shape" result="effect1_innerShadow_77_1874"/>
</filter>
<filter id="filter1_i_77_1874" x="108.44" y="35.3896" width="132.314" height="49.5523" filterUnits="userSpaceOnUse" color-interpolation-filters="sRGB">
<feFlood flood-opacity="0" result="BackgroundImageFix"/>
<feBlend mode="normal" in="SourceGraphic" in2="BackgroundImageFix" result="shape"/>
<feColorMatrix in="SourceAlpha" type="matrix" values="0 0 0 0 0 0 0 0 0 0 0 0 0 0 0 0 0 0 127 0" result="hardAlpha"/>
<feOffset dx="5.1921" dy="-5.1921"/>
<feGaussianBlur stdDeviation="4.32675"/>
<feComposite in2="hardAlpha" operator="arithmetic" k2="-1" k3="1"/>
<feColorMatrix type="matrix" values="0 0 0 0 0.679167 0 0 0 0 0.679167 0 0 0 0 0.679167 0 0 0 0.1 0"/>
<feBlend mode="normal" in2="shape" result="effect1_innerShadow_77_1874"/>
</filter>
</defs>
</svg>
