<svg width="18" height="18" viewBox="0 0 18 18" fill="none" xmlns="http://www.w3.org/2000/svg">
<g id="mi:circle-information">
<g id="Group">
<path id="Vector" d="M9 3C7.4087 3 5.88258 3.63214 4.75736 4.75736C3.63214 5.88258 3 7.4087 3 9C3 10.5913 3.63214 12.1174 4.75736 13.2426C5.88258 14.3679 7.4087 15 9 15C10.5913 15 12.1174 14.3679 13.2426 13.2426C14.3679 12.1174 15 10.5913 15 9C15 7.4087 14.3679 5.88258 13.2426 4.75736C12.1174 3.63214 10.5913 3 9 3ZM1.5 9C1.5 4.85775 4.85775 1.5 9 1.5C13.1422 1.5 16.5 4.85775 16.5 9C16.5 13.1422 13.1422 16.5 9 16.5C4.85775 16.5 1.5 13.1422 1.5 9Z" fill="#151515"/>
<path id="Vector_2" d="M9 7.5C9.19891 7.5 9.38968 7.57902 9.53033 7.71967C9.67098 7.86032 9.75 8.05109 9.75 8.25V12.75C9.75 12.9489 9.67098 13.1397 9.53033 13.2803C9.38968 13.421 9.19891 13.5 9 13.5C8.80109 13.5 8.61032 13.421 8.46967 13.2803C8.32902 13.1397 8.25 12.9489 8.25 12.75V8.25C8.25 8.05109 8.32902 7.86032 8.46967 7.71967C8.61032 7.57902 8.80109 7.5 9 7.5ZM10.125 5.625C10.125 5.92337 10.0065 6.20952 9.7955 6.4205C9.58452 6.63147 9.29837 6.75 9 6.75C8.70163 6.75 8.41548 6.63147 8.2045 6.4205C7.99353 6.20952 7.875 5.92337 7.875 5.625C7.875 5.32663 7.99353 5.04048 8.2045 4.8295C8.41548 4.61853 8.70163 4.5 9 4.5C9.29837 4.5 9.58452 4.61853 9.7955 4.8295C10.0065 5.04048 10.125 5.32663 10.125 5.625Z" fill="#151515"/>
</g>
</g>
</svg>
