<svg width="242" height="69" viewBox="0 0 242 69" fill="none" xmlns="http://www.w3.org/2000/svg">
<g id="OCTOPUS-LOGO-FA 2">
<g id="Group">
<g id="Group_2">
<path id="Vector" d="M116.663 52.0041C108.673 52.0041 102.631 46.7247 102.631 38.1985C102.631 29.7005 108.816 24.3928 116.777 24.3928C124.767 24.3928 130.923 29.6723 130.923 38.1985C130.895 46.6964 124.652 52.0041 116.663 52.0041ZM116.663 44.8613C119.641 44.8613 122.418 42.6874 122.418 38.1702C122.418 33.5966 119.698 31.4792 116.777 31.4792C113.742 31.4792 111.136 33.5966 111.136 38.1702C111.107 42.7157 113.656 44.8613 116.663 44.8613Z" fill="#44B598"/>
<g id="Group_3">
<path id="Vector_2" d="M149.623 24.3928C156.295 24.3928 161.621 29.6723 161.621 38.142C161.621 46.6117 156.295 52.0041 149.623 52.0041C145.614 52.0041 142.75 50.1408 141.232 47.8539V64.3981H132.899V24.7598H141.232V28.5712C142.75 26.1997 145.642 24.3928 149.623 24.3928ZM147.131 31.5639C144.01 31.5639 141.175 33.9071 141.175 38.1985C141.175 42.4898 144.01 44.8331 147.131 44.8331C150.31 44.8331 153.116 42.4333 153.116 38.142C153.145 33.8507 150.31 31.5639 147.131 31.5639Z" fill="#44B598"/>
<path id="Vector_3" d="M190.429 51.6088H182.096V47.9668C180.435 50.2819 177.514 51.9193 173.848 51.9193C167.549 51.9193 163.311 47.628 163.311 40.4852V24.7598H171.586V39.3277C171.586 42.9697 173.677 45.0024 176.798 45.0024C180.005 45.0024 182.067 42.9697 182.067 39.3277V24.7598H190.429V51.6088Z" fill="#44B598"/>
<path id="Vector_4" d="M205.061 52.0041C197.788 52.0041 192.92 48.0233 192.519 42.8286H200.766C200.966 44.6919 202.656 45.9624 204.947 45.9624C207.095 45.9624 208.211 45.0025 208.211 43.7885C208.211 39.4689 193.378 42.5745 193.378 32.7214C193.378 28.1477 197.33 24.3928 204.431 24.3928C211.447 24.3928 215.342 28.2324 215.886 33.5401H208.183C207.925 31.705 206.522 30.5193 204.174 30.5193C202.226 30.5193 201.138 31.2815 201.138 32.5802C201.138 36.8715 215.857 33.8224 216 43.845C216.086 48.4751 211.905 52.0041 205.061 52.0041Z" fill="#44B598"/>
</g>
<g id="Group_4">
<g id="Group_5">
<g id="Group_6">
<path id="Vector_5" d="M106.296 17.2499C106.239 17.2217 106.153 17.1652 106.096 17.137C104.235 15.7536 103.776 12.5633 104.836 9.99418C105.895 7.45327 108.186 5.58993 110.534 4.94058C116.977 3.19017 124.108 8.4414 123.993 16.0359C123.879 22.9529 119.583 28.684 116.949 34.8669C115.746 37.6619 115.116 41.1063 115.746 43.9295C116.634 47.8821 119.87 47.995 123.105 47.8256C124.394 47.7691 124.566 49.8866 123.993 50.2536C119.669 52.7945 113.398 52.3992 109.332 50.2253C104.492 47.628 101.944 42.5179 102.602 36.5609C103.232 31.0273 106.955 27.3289 109.246 23.6869C111.336 20.3272 115.202 16.6853 115.002 12.4222C114.83 8.83665 110.706 6.83215 108.072 9.486C106.21 11.3493 106.411 14.1726 107.299 16.2335C107.413 16.5441 107.27 16.9958 107.012 17.2217C106.812 17.4193 106.554 17.3911 106.296 17.2499Z" fill="#2A3E7E"/>
</g>
</g>
<path id="Vector_6" d="M117.636 17.6453C117.636 18.2664 117.12 18.7746 116.49 18.7746C115.86 18.7746 115.345 18.2664 115.345 17.6453C115.345 17.0242 115.86 16.516 116.49 16.516C117.12 16.516 117.636 17.0242 117.636 17.6453Z" fill="white"/>
<path id="Vector_7" d="M115.804 21.2589C115.804 21.88 115.289 22.3882 114.659 22.3882C114.029 22.3882 113.513 21.88 113.513 21.2589C113.513 20.6378 114.029 20.1296 114.659 20.1296C115.317 20.1296 115.804 20.6378 115.804 21.2589Z" fill="white"/>
<path id="Vector_8" d="M113.57 24.3081C113.57 24.9292 113.054 25.4374 112.424 25.4374C111.794 25.4374 111.279 24.9292 111.279 24.3081C111.279 23.687 111.794 23.1788 112.424 23.1788C113.054 23.1788 113.57 23.687 113.57 24.3081Z" fill="white"/>
<path id="Vector_9" d="M111.508 27.7807C111.508 28.4018 110.993 28.91 110.363 28.91C109.733 28.91 109.217 28.4018 109.217 27.7807C109.217 27.1596 109.733 26.6514 110.363 26.6514C110.993 26.6514 111.508 27.1596 111.508 27.7807Z" fill="white"/>
</g>
</g>
<path id="Vector_10" d="M39.632 52.0041C31.6426 52.0041 25.6005 46.7247 25.6005 38.1985C25.6005 29.7005 31.7858 24.3928 39.7465 24.3928C47.7359 24.3928 53.8926 29.6723 53.8926 38.1985C53.864 46.6964 47.6214 52.0041 39.632 52.0041ZM39.632 44.8613C42.6101 44.8613 45.3878 42.6874 45.3878 38.1702C45.3878 33.5966 42.6674 31.4792 39.7465 31.4792C36.7111 31.4792 34.1053 33.5966 34.1053 38.1702C34.0767 42.7157 36.5966 44.8613 39.632 44.8613Z" fill="#44B598"/>
<path id="Vector_11" d="M69.6131 24.3928C76.4284 24.3928 81.2679 28.0913 82.671 34.5H73.7939C73.1067 32.6367 71.7608 31.4227 69.4413 31.4227C66.4632 31.4227 64.43 33.7378 64.43 38.1985C64.43 42.6592 66.4918 44.9743 69.4413 44.9743C71.7321 44.9743 73.0494 43.8732 73.7939 41.8969H82.671C81.2679 48.108 76.4284 52.0041 69.6131 52.0041C61.6237 52.0041 55.9538 46.7247 55.9538 38.1985C55.9538 29.7287 61.6237 24.3928 69.6131 24.3928Z" fill="#44B598"/>
<g id="Group_7">
<path id="Vector_12" d="M86.6512 31.6767H83.3294V24.8445H86.6512V18.2946H94.9842V24.8445H100.454V31.6767H94.9842V42.4615C94.9842 44.0425 95.6714 44.7201 97.5327 44.7201H100.511V51.6653H96.2728C90.6315 51.6653 86.6798 49.322 86.6798 42.3486V31.6767H86.6512Z" fill="#44B598"/>
</g>
</g>
</g>
</svg>
