<svg width="14" height="14" viewBox="0 0 14 14" fill="none" xmlns="http://www.w3.org/2000/svg">
<g id="openmoji:coin" clip-path="url(#clip0_29_709)">
<path id="Vector" d="M4.0104 9.43346C2.05384 7.00598 1.96689 3.82979 3.8162 2.33924C5.66551 0.848684 8.75077 1.60821 10.7073 4.03569C12.6639 6.46317 12.7508 9.63936 10.9015 11.1299C9.05222 12.6205 5.96696 11.8609 4.0104 9.43346Z" fill="#E0D02A"/>
<g id="Group">
<path id="Vector_2" d="M8.98628 9.083C8.10356 9.63407 7.06663 9.45896 6.4725 8.50725C5.87836 7.55554 6.19211 6.53724 7.07 5.98919C7.95271 5.43812 9.00053 5.60643 9.59466 6.55814C10.1888 7.50985 9.869 8.53193 8.98628 9.083ZM8.48866 8.28588C8.81756 8.08055 8.97269 7.64802 8.65678 7.14197C8.33784 6.63109 7.88897 6.58234 7.56611 6.78389C7.23237 6.99224 7.08994 7.41013 7.40888 7.92101C7.72479 8.42706 8.15491 8.49423 8.48866 8.28588Z" fill="white"/>
<g id="Group_2">
<g id="Group_3">
<g id="Group_4">
<path id="Vector_3" d="M5.4162 5.91031C5.40669 5.91121 5.39642 5.91091 5.38614 5.91061C5.08211 5.88389 4.81056 5.5566 4.74871 5.1991C4.6861 4.84039 4.8111 4.47534 5.02659 4.24178C5.61592 3.60029 6.7703 3.69703 7.28583 4.55514C7.75583 5.33762 7.68461 6.27334 7.82325 7.14686C7.88598 7.54074 8.05712 7.971 8.32283 8.2432C8.69673 8.62409 9.0634 8.41197 9.40836 8.17312C9.54531 8.07755 9.71515 8.30386 9.67519 8.38251C9.37474 8.96452 8.65593 9.35283 8.0538 9.38968C7.33959 9.43272 6.69879 9.03886 6.35878 8.32462C6.04288 7.66247 6.19418 6.9923 6.19206 6.42631C6.18974 5.90576 6.36129 5.23303 6.0417 4.76955C5.77324 4.3799 5.17789 4.44106 5.07195 4.92009C4.99682 5.25737 5.21734 5.55945 5.45808 5.72974C5.49371 5.7545 5.50844 5.8158 5.49722 5.85973C5.4851 5.89415 5.45185 5.90819 5.4162 5.91031Z" fill="#2A3E7E"/>
</g>
</g>
<path id="Vector_4" d="M6.64651 5.37614C6.71579 5.33288 6.73694 5.24172 6.69374 5.17253C6.65054 5.10333 6.55935 5.08229 6.49007 5.12554C6.42079 5.16879 6.39964 5.25995 6.44284 5.32915C6.48604 5.39835 6.57723 5.41939 6.64651 5.37614Z" fill="white"/>
<path id="Vector_5" d="M6.69827 5.90787C6.76755 5.86462 6.7887 5.77346 6.7455 5.70426C6.7023 5.63506 6.61111 5.61403 6.54183 5.65728C6.47255 5.70053 6.4514 5.79169 6.4946 5.86089C6.5378 5.93009 6.62899 5.95113 6.69827 5.90787Z" fill="white"/>
<path id="Vector_6" d="M6.72256 6.2205C6.69102 6.14527 6.6044 6.1099 6.52909 6.14151C6.45378 6.17312 6.4183 6.25973 6.44984 6.33497C6.48139 6.4102 6.56801 6.44557 6.64332 6.41396C6.71863 6.38235 6.75411 6.29574 6.72256 6.2205Z" fill="white"/>
<path id="Vector_7" d="M6.67642 6.93363C6.7457 6.89038 6.76685 6.79922 6.72365 6.73002C6.68045 6.66082 6.58926 6.63979 6.51998 6.68304C6.4507 6.72629 6.42955 6.81745 6.47275 6.88665C6.51595 6.95585 6.60714 6.97688 6.67642 6.93363Z" fill="white"/>
</g>
</g>
<path id="Vector_8" d="M3.86155 2.33903C4.59575 1.76706 5.52134 1.49843 6.44767 1.58848C5.73308 1.63214 5.04913 1.89413 4.48825 2.33903C2.63908 3.82964 2.7258 7.0057 4.6823 9.43314C5.87619 10.9144 7.49008 11.7731 8.9873 11.88C7.32869 12.0043 5.41867 11.1238 4.0558 9.43314C2.0993 7.0057 2.01219 3.82945 3.86155 2.33903Z" fill="white"/>
<path id="Vector_9" d="M3.23812 2.54376C3.33555 2.46526 3.43665 2.39142 3.54107 2.32248C3.548 2.31911 3.55515 2.31619 3.56246 2.31373C3.59594 2.29717 3.63339 2.2903 3.67057 2.2939C3.70873 2.29779 3.74464 2.3138 3.77304 2.3396C3.7794 2.34369 3.78551 2.34817 3.79132 2.35301C3.79501 2.3569 3.79618 2.36215 3.79948 2.36623C3.80279 2.37032 3.80746 2.37285 3.81057 2.37732C3.81386 2.38426 3.81672 2.39141 3.81912 2.39871C3.83593 2.43252 3.84281 2.47042 3.83896 2.50798C3.83732 2.52009 3.83452 2.532 3.83059 2.54357C3.82356 2.56794 3.8109 2.59031 3.79365 2.6089C3.78952 2.61547 3.78497 2.62177 3.78004 2.62776C2.17043 4.11254 2.33823 7.04865 4.16212 9.31179C6.04862 11.6519 9.0174 12.3996 10.7798 10.9788C10.7912 10.9712 10.8034 10.9648 10.8162 10.9599L10.8269 10.9543C10.8455 10.9464 10.8651 10.9415 10.8852 10.9399C10.8905 10.9395 10.8955 10.9387 10.9008 10.9385C10.9423 10.9375 10.9829 10.9509 11.0155 10.9766C11.0221 10.98 11.0284 10.9838 11.0346 10.9879C11.0385 10.9912 11.0398 10.9959 11.0431 10.9996C11.0462 11.0029 11.0505 11.0044 11.0534 11.0079C11.0568 11.0137 11.0598 11.0196 11.0626 11.0256C11.0721 11.0392 11.0797 11.054 11.0853 11.0696C11.0872 11.0758 11.0888 11.0821 11.09 11.0884C11.0946 11.1073 11.0963 11.1268 11.095 11.1462C11.0947 11.1501 11.0939 11.1536 11.0933 11.1575C11.0906 11.1786 11.0842 11.1991 11.0746 11.2181C11.0731 11.2212 11.0711 11.224 11.0694 11.2269C11.0637 11.2395 11.0566 11.2514 11.0482 11.2625C10.9112 11.4137 10.7626 11.554 10.6037 11.6821C9.86067 12.2698 8.93738 12.5827 7.99015 12.5678C6.31987 12.5678 4.51154 11.6967 3.22082 10.0954C1.19004 7.57599 1.19801 4.18818 3.23832 2.54376H3.23812Z" fill="#FFB500"/>
<g id="Group_5">
<path id="Vector_10" d="M3.64819 2.48425C3.54941 2.5492 3.45329 2.61933 3.35983 2.69464C1.39983 4.27431 1.40527 7.533 3.37169 9.9727C5.3381 12.4124 8.52135 13.1101 10.4814 11.5304C10.6323 11.4088 10.7735 11.2755 10.9037 11.1318" stroke="#2A3E7E" stroke-width="0.537815" stroke-miterlimit="10"/>
<path id="Vector_11" d="M4.0104 9.43358C2.05384 7.0061 1.96689 3.82991 3.8162 2.33936C5.66551 0.848806 8.75077 1.60834 10.7073 4.03581C12.6639 6.46329 12.7508 9.63948 10.9015 11.13C9.05222 12.6206 5.96696 11.8611 4.0104 9.43358Z" stroke="#2A3E7E" stroke-width="0.537815" stroke-miterlimit="10"/>
<path id="Vector_12" d="M4.01125 9.43364L3.3723 9.97323M4.68344 10.1618L4.12033 10.7671M5.39491 10.7537L4.93253 11.3997M6.17542 11.2744L5.81141 11.9247M3.49344 8.70642L2.81503 9.17581" stroke="#2A3E7E" stroke-width="0.537815" stroke-miterlimit="10"/>
</g>
</g>
<defs>
<clipPath id="clip0_29_709">
<rect width="14" height="14" fill="white" transform="matrix(-1 0 0 1 14 0)"/>
</clipPath>
</defs>
</svg>
