<svg width="22" height="22" viewBox="0 0 22 22" fill="none" xmlns="http://www.w3.org/2000/svg">
<g id="ic:baseline-phone-iphone">
<path id="Vector" d="M14.2083 0.916687H6.87501C6.26722 0.916687 5.68433 1.15813 5.25456 1.5879C4.82479 2.01767 4.58334 2.60057 4.58334 3.20835V18.7917C4.58334 19.3995 4.82479 19.9824 5.25456 20.4121C5.68433 20.8419 6.26722 21.0834 6.87501 21.0834H14.2083C14.8161 21.0834 15.399 20.8419 15.8288 20.4121C16.2586 19.9824 16.5 19.3995 16.5 18.7917V3.20835C16.5 2.60057 16.2586 2.01767 15.8288 1.5879C15.399 1.15813 14.8161 0.916687 14.2083 0.916687ZM10.5417 20.1667C9.78084 20.1667 9.16668 19.5525 9.16668 18.7917C9.16668 18.0309 9.78084 17.4167 10.5417 17.4167C11.3025 17.4167 11.9167 18.0309 11.9167 18.7917C11.9167 19.5525 11.3025 20.1667 10.5417 20.1667ZM14.6667 16.5H6.41668V3.66669H14.6667V16.5Z" fill="#9B9B9B"/>
</g>
</svg>
